<?xml version="1.0" encoding="UTF-8" standalone="no"?><svg xmlns="http://www.w3.org/2000/svg" xmlns:xlink="http://www.w3.org/1999/xlink" contentScriptType="application/ecmascript" contentStyleType="text/css" height="1011px" preserveAspectRatio="none" style="width:1017px;height:1011px;" version="1.1" viewBox="0 0 1017 1011" width="1017px" zoomAndPan="magnify"><defs><filter height="300%" id="f5fvyj19ipu7z" width="300%" x="-1" y="-1"><feGaussianBlur result="blurOut" stdDeviation="2.0"/><feColorMatrix in="blurOut" result="blurOut2" type="matrix" values="0 0 0 0 0 0 0 0 0 0 0 0 0 0 0 0 0 0 .4 0"/><feOffset dx="4.0" dy="4.0" in="blurOut2" result="blurOut3"/><feBlend in="SourceGraphic" in2="blurOut3" mode="normal"/></filter></defs><g><!--cluster pckgConn--><rect fill="#FFFFFF" filter="url(#f5fvyj19ipu7z)" height="171" style="stroke: #000000; stroke-width: 1.5;" width="634" x="322" y="623"/><text fill="#000000" font-family="sans-serif" font-size="14" font-weight="bold" lengthAdjust="spacingAndGlyphs" textLength="0" x="641" y="639.5332"/><!--class Stat--><rect fill="#FFFFFF" filter="url(#f5fvyj19ipu7z)" height="158.6875" id="Stat" style="stroke: #808080; stroke-width: 1.5;" width="63" x="269.5" y="842"/><ellipse cx="289" cy="858" fill="#ADD1B2" rx="11" ry="11" style="stroke: #808080; stroke-width: 1.0;"/><path d="M291.7656,853.875 Q291.9219,853.6563 292.1094,853.5469 Q292.2969,853.4375 292.5156,853.4375 Q292.8906,853.4375 293.125,853.6953 Q293.3594,853.9531 293.3594,854.5625 L293.3594,856.0156 Q293.3594,856.625 293.125,856.8906 Q292.8906,857.1563 292.5156,857.1563 Q292.1719,857.1563 291.9688,856.9531 Q291.7656,856.7656 291.6563,856.25 Q291.6094,855.8906 291.4219,855.7031 Q291.0938,855.3281 290.4844,855.1094 Q289.875,854.8906 289.25,854.8906 Q288.4844,854.8906 287.8516,855.2188 Q287.2188,855.5469 286.7266,856.2969 Q286.2344,857.0469 286.2344,858.0781 L286.2344,859.1719 Q286.2344,860.4063 287.125,861.2266 Q288.0156,862.0469 289.6094,862.0469 Q290.5469,862.0469 291.2031,861.7969 Q291.5938,861.6406 292.0156,861.2031 Q292.2813,860.9375 292.4297,860.8594 Q292.5781,860.7813 292.7813,860.7813 Q293.1094,860.7813 293.3672,861.0391 Q293.625,861.2969 293.625,861.6406 Q293.625,861.9844 293.2813,862.3906 Q292.7813,862.9688 291.9844,863.2969 Q290.9063,863.75 289.6094,863.75 Q288.0938,863.75 286.8906,863.125 Q285.9063,862.625 285.2188,861.5547 Q284.5313,860.4844 284.5313,859.2031 L284.5313,858.0469 Q284.5313,856.7188 285.1484,855.5703 Q285.7656,854.4219 286.8594,853.8047 Q287.9531,853.1875 289.1875,853.1875 Q289.9219,853.1875 290.5703,853.3516 Q291.2188,853.5156 291.7656,853.875 Z "/><text fill="#000000" font-family="sans-serif" font-size="12" lengthAdjust="spacingAndGlyphs" textLength="21" x="304" y="862.9102">Stat</text><line style="stroke: #808080; stroke-width: 1.5;" x1="270.5" x2="331.5" y1="874" y2="874"/><ellipse cx="280.5" cy="886.418" fill="none" rx="3" ry="3" style="stroke: #038048; stroke-width: 1.0;"/><text fill="#000000" font-family="sans-serif" font-size="11" lengthAdjust="spacingAndGlyphs" textLength="20" x="289.5" y="889.4189">nom</text><ellipse cx="280.5" cy="900.2539" fill="none" rx="3" ry="3" style="stroke: #038048; stroke-width: 1.0;"/><text fill="#000000" font-family="sans-serif" font-size="11" lengthAdjust="spacingAndGlyphs" textLength="30" x="289.5" y="903.2549">valeur</text><ellipse cx="280.5" cy="914.0898" fill="none" rx="3" ry="3" style="stroke: #038048; stroke-width: 1.0;"/><text fill="#000000" font-family="sans-serif" font-size="11" lengthAdjust="spacingAndGlyphs" textLength="35" x="289.5" y="917.0908">rBonus</text><ellipse cx="280.5" cy="927.9258" fill="none" rx="3" ry="3" style="stroke: #038048; stroke-width: 1.0;"/><text fill="#000000" font-family="sans-serif" font-size="11" lengthAdjust="spacingAndGlyphs" textLength="37" x="289.5" y="930.9268">dBonus</text><ellipse cx="280.5" cy="941.7617" fill="none" rx="3" ry="3" style="stroke: #038048; stroke-width: 1.0;"/><text fill="#000000" font-family="sans-serif" font-size="11" lengthAdjust="spacingAndGlyphs" textLength="37" x="289.5" y="944.7627">sBonus</text><rect fill="none" height="6" style="stroke: #C82930; stroke-width: 1.0;" width="6" x="277.5" y="952.5977"/><text fill="#000000" font-family="sans-serif" font-size="11" lengthAdjust="spacingAndGlyphs" textLength="20" x="289.5" y="958.5986">total</text><rect fill="none" height="6" style="stroke: #C82930; stroke-width: 1.0;" width="6" x="277.5" y="966.4336"/><text fill="#000000" font-family="sans-serif" font-size="11" lengthAdjust="spacingAndGlyphs" textLength="20" x="289.5" y="972.4346">mod</text><rect fill="none" height="6" style="stroke: #C82930; stroke-width: 1.0;" width="6" x="277.5" y="980.2695"/><text fill="#000000" font-family="sans-serif" font-size="11" lengthAdjust="spacingAndGlyphs" textLength="29" x="289.5" y="986.2705">points</text><line style="stroke: #808080; stroke-width: 1.5;" x1="270.5" x2="331.5" y1="992.6875" y2="992.6875"/><!--class Resistance--><rect fill="#FFFFFF" filter="url(#f5fvyj19ipu7z)" height="131.0156" id="Resistance" style="stroke: #808080; stroke-width: 1.5;" width="95" x="139.5" y="856"/><ellipse cx="154.5" cy="872" fill="#ADD1B2" rx="11" ry="11" style="stroke: #808080; stroke-width: 1.0;"/><path d="M157.2656,867.875 Q157.4219,867.6563 157.6094,867.5469 Q157.7969,867.4375 158.0156,867.4375 Q158.3906,867.4375 158.625,867.6953 Q158.8594,867.9531 158.8594,868.5625 L158.8594,870.0156 Q158.8594,870.625 158.625,870.8906 Q158.3906,871.1563 158.0156,871.1563 Q157.6719,871.1563 157.4688,870.9531 Q157.2656,870.7656 157.1563,870.25 Q157.1094,869.8906 156.9219,869.7031 Q156.5938,869.3281 155.9844,869.1094 Q155.375,868.8906 154.75,868.8906 Q153.9844,868.8906 153.3516,869.2188 Q152.7188,869.5469 152.2266,870.2969 Q151.7344,871.0469 151.7344,872.0781 L151.7344,873.1719 Q151.7344,874.4063 152.625,875.2266 Q153.5156,876.0469 155.1094,876.0469 Q156.0469,876.0469 156.7031,875.7969 Q157.0938,875.6406 157.5156,875.2031 Q157.7813,874.9375 157.9297,874.8594 Q158.0781,874.7813 158.2813,874.7813 Q158.6094,874.7813 158.8672,875.0391 Q159.125,875.2969 159.125,875.6406 Q159.125,875.9844 158.7813,876.3906 Q158.2813,876.9688 157.4844,877.2969 Q156.4063,877.75 155.1094,877.75 Q153.5938,877.75 152.3906,877.125 Q151.4063,876.625 150.7188,875.5547 Q150.0313,874.4844 150.0313,873.2031 L150.0313,872.0469 Q150.0313,870.7188 150.6484,869.5703 Q151.2656,868.4219 152.3594,867.8047 Q153.4531,867.1875 154.6875,867.1875 Q155.4219,867.1875 156.0703,867.3516 Q156.7188,867.5156 157.2656,867.875 Z "/><text fill="#000000" font-family="sans-serif" font-size="12" lengthAdjust="spacingAndGlyphs" textLength="63" x="168.5" y="876.9102">Resistance</text><line style="stroke: #808080; stroke-width: 1.5;" x1="140.5" x2="233.5" y1="888" y2="888"/><ellipse cx="150.5" cy="900.418" fill="none" rx="3" ry="3" style="stroke: #038048; stroke-width: 1.0;"/><text fill="#000000" font-family="sans-serif" font-size="11" lengthAdjust="spacingAndGlyphs" textLength="22" x="159.5" y="903.4189">elem</text><ellipse cx="150.5" cy="914.2539" fill="none" rx="3" ry="3" style="stroke: #038048; stroke-width: 1.0;"/><text fill="#000000" font-family="sans-serif" font-size="11" lengthAdjust="spacingAndGlyphs" textLength="30" x="159.5" y="917.2549">valeur</text><ellipse cx="150.5" cy="928.0898" fill="none" rx="3" ry="3" style="stroke: #038048; stroke-width: 1.0;"/><text fill="#000000" font-family="sans-serif" font-size="11" lengthAdjust="spacingAndGlyphs" textLength="32" x="159.5" y="931.0908">niveau</text><ellipse cx="150.5" cy="941.9258" fill="none" rx="3" ry="3" style="stroke: #038048; stroke-width: 1.0;"/><text fill="#000000" font-family="sans-serif" font-size="11" lengthAdjust="spacingAndGlyphs" textLength="30" x="159.5" y="944.9268">bonus</text><rect fill="none" height="6" style="stroke: #C82930; stroke-width: 1.0;" width="6" x="147.5" y="952.7617"/><text fill="#000000" font-family="sans-serif" font-size="11" lengthAdjust="spacingAndGlyphs" textLength="20" x="159.5" y="958.7627">total</text><rect fill="none" height="6" style="stroke: #C82930; stroke-width: 1.0;" width="6" x="147.5" y="966.5977"/><text fill="#000000" font-family="sans-serif" font-size="11" lengthAdjust="spacingAndGlyphs" textLength="29" x="159.5" y="972.5986">points</text><line style="stroke: #808080; stroke-width: 1.5;" x1="140.5" x2="233.5" y1="979.0156" y2="979.0156"/><!--class Jauge--><rect fill="#FFFFFF" filter="url(#f5fvyj19ipu7z)" height="117.1797" id="Jauge" style="stroke: #808080; stroke-width: 1.5;" width="66" x="38" y="863"/><ellipse cx="53" cy="879" fill="#ADD1B2" rx="11" ry="11" style="stroke: #808080; stroke-width: 1.0;"/><path d="M55.7656,874.875 Q55.9219,874.6563 56.1094,874.5469 Q56.2969,874.4375 56.5156,874.4375 Q56.8906,874.4375 57.125,874.6953 Q57.3594,874.9531 57.3594,875.5625 L57.3594,877.0156 Q57.3594,877.625 57.125,877.8906 Q56.8906,878.1563 56.5156,878.1563 Q56.1719,878.1563 55.9688,877.9531 Q55.7656,877.7656 55.6563,877.25 Q55.6094,876.8906 55.4219,876.7031 Q55.0938,876.3281 54.4844,876.1094 Q53.875,875.8906 53.25,875.8906 Q52.4844,875.8906 51.8516,876.2188 Q51.2188,876.5469 50.7266,877.2969 Q50.2344,878.0469 50.2344,879.0781 L50.2344,880.1719 Q50.2344,881.4063 51.125,882.2266 Q52.0156,883.0469 53.6094,883.0469 Q54.5469,883.0469 55.2031,882.7969 Q55.5938,882.6406 56.0156,882.2031 Q56.2813,881.9375 56.4297,881.8594 Q56.5781,881.7813 56.7813,881.7813 Q57.1094,881.7813 57.3672,882.0391 Q57.625,882.2969 57.625,882.6406 Q57.625,882.9844 57.2813,883.3906 Q56.7813,883.9688 55.9844,884.2969 Q54.9063,884.75 53.6094,884.75 Q52.0938,884.75 50.8906,884.125 Q49.9063,883.625 49.2188,882.5547 Q48.5313,881.4844 48.5313,880.2031 L48.5313,879.0469 Q48.5313,877.7188 49.1484,876.5703 Q49.7656,875.4219 50.8594,874.8047 Q51.9531,874.1875 53.1875,874.1875 Q53.9219,874.1875 54.5703,874.3516 Q55.2188,874.5156 55.7656,874.875 Z "/><text fill="#000000" font-family="sans-serif" font-size="12" lengthAdjust="spacingAndGlyphs" textLength="34" x="67" y="883.9102">Jauge</text><line style="stroke: #808080; stroke-width: 1.5;" x1="39" x2="103" y1="895" y2="895"/><ellipse cx="49" cy="907.418" fill="none" rx="3" ry="3" style="stroke: #038048; stroke-width: 1.0;"/><text fill="#000000" font-family="sans-serif" font-size="11" lengthAdjust="spacingAndGlyphs" textLength="20" x="58" y="910.4189">nom</text><ellipse cx="49" cy="921.2539" fill="none" rx="3" ry="3" style="stroke: #038048; stroke-width: 1.0;"/><text fill="#000000" font-family="sans-serif" font-size="11" lengthAdjust="spacingAndGlyphs" textLength="30" x="58" y="924.2549">valeur</text><ellipse cx="49" cy="935.0898" fill="none" rx="3" ry="3" style="stroke: #038048; stroke-width: 1.0;"/><text fill="#000000" font-family="sans-serif" font-size="11" lengthAdjust="spacingAndGlyphs" textLength="30" x="58" y="938.0908">bonus</text><rect fill="none" height="6" style="stroke: #C82930; stroke-width: 1.0;" width="6" x="46" y="945.9258"/><text fill="#000000" font-family="sans-serif" font-size="11" lengthAdjust="spacingAndGlyphs" textLength="20" x="58" y="951.9268">total</text><rect fill="none" height="6" style="stroke: #C82930; stroke-width: 1.0;" width="6" x="46" y="959.7617"/><text fill="#000000" font-family="sans-serif" font-size="11" lengthAdjust="spacingAndGlyphs" textLength="29" x="58" y="965.7627">points</text><line style="stroke: #808080; stroke-width: 1.5;" x1="39" x2="103" y1="972.1797" y2="972.1797"/><!--class Langue--><rect fill="#FFFFFF" filter="url(#f5fvyj19ipu7z)" height="75.6719" id="Langue" style="stroke: #808080; stroke-width: 1.5;" width="74" x="839" y="680.5"/><ellipse cx="854" cy="696.5" fill="#ADD1B2" rx="11" ry="11" style="stroke: #808080; stroke-width: 1.0;"/><path d="M856.7656,692.375 Q856.9219,692.1563 857.1094,692.0469 Q857.2969,691.9375 857.5156,691.9375 Q857.8906,691.9375 858.125,692.1953 Q858.3594,692.4531 858.3594,693.0625 L858.3594,694.5156 Q858.3594,695.125 858.125,695.3906 Q857.8906,695.6563 857.5156,695.6563 Q857.1719,695.6563 856.9688,695.4531 Q856.7656,695.2656 856.6563,694.75 Q856.6094,694.3906 856.4219,694.2031 Q856.0938,693.8281 855.4844,693.6094 Q854.875,693.3906 854.25,693.3906 Q853.4844,693.3906 852.8516,693.7188 Q852.2188,694.0469 851.7266,694.7969 Q851.2344,695.5469 851.2344,696.5781 L851.2344,697.6719 Q851.2344,698.9063 852.125,699.7266 Q853.0156,700.5469 854.6094,700.5469 Q855.5469,700.5469 856.2031,700.2969 Q856.5938,700.1406 857.0156,699.7031 Q857.2813,699.4375 857.4297,699.3594 Q857.5781,699.2813 857.7813,699.2813 Q858.1094,699.2813 858.3672,699.5391 Q858.625,699.7969 858.625,700.1406 Q858.625,700.4844 858.2813,700.8906 Q857.7813,701.4688 856.9844,701.7969 Q855.9063,702.25 854.6094,702.25 Q853.0938,702.25 851.8906,701.625 Q850.9063,701.125 850.2188,700.0547 Q849.5313,698.9844 849.5313,697.7031 L849.5313,696.5469 Q849.5313,695.2188 850.1484,694.0703 Q850.7656,692.9219 851.8594,692.3047 Q852.9531,691.6875 854.1875,691.6875 Q854.9219,691.6875 855.5703,691.8516 Q856.2188,692.0156 856.7656,692.375 Z "/><text fill="#000000" font-family="sans-serif" font-size="12" lengthAdjust="spacingAndGlyphs" textLength="42" x="868" y="701.4102">Langue</text><line style="stroke: #808080; stroke-width: 1.5;" x1="840" x2="912" y1="712.5" y2="712.5"/><ellipse cx="850" cy="724.918" fill="none" rx="3" ry="3" style="stroke: #038048; stroke-width: 1.0;"/><text fill="#000000" font-family="sans-serif" font-size="11" lengthAdjust="spacingAndGlyphs" textLength="20" x="859" y="727.9189">nom</text><ellipse cx="850" cy="738.7539" fill="none" rx="3" ry="3" style="stroke: #038048; stroke-width: 1.0;"/><text fill="#000000" font-family="sans-serif" font-size="11" lengthAdjust="spacingAndGlyphs" textLength="29" x="859" y="741.7549">points</text><line style="stroke: #808080; stroke-width: 1.5;" x1="840" x2="912" y1="748.1719" y2="748.1719"/><!--class Competence--><rect fill="#FFFFFF" filter="url(#f5fvyj19ipu7z)" height="103.3438" id="Competence" style="stroke: #808080; stroke-width: 1.5;" width="103" x="700.5" y="667"/><ellipse cx="715.5" cy="683" fill="#ADD1B2" rx="11" ry="11" style="stroke: #808080; stroke-width: 1.0;"/><path d="M718.2656,678.875 Q718.4219,678.6563 718.6094,678.5469 Q718.7969,678.4375 719.0156,678.4375 Q719.3906,678.4375 719.625,678.6953 Q719.8594,678.9531 719.8594,679.5625 L719.8594,681.0156 Q719.8594,681.625 719.625,681.8906 Q719.3906,682.1563 719.0156,682.1563 Q718.6719,682.1563 718.4688,681.9531 Q718.2656,681.7656 718.1563,681.25 Q718.1094,680.8906 717.9219,680.7031 Q717.5938,680.3281 716.9844,680.1094 Q716.375,679.8906 715.75,679.8906 Q714.9844,679.8906 714.3516,680.2188 Q713.7188,680.5469 713.2266,681.2969 Q712.7344,682.0469 712.7344,683.0781 L712.7344,684.1719 Q712.7344,685.4063 713.625,686.2266 Q714.5156,687.0469 716.1094,687.0469 Q717.0469,687.0469 717.7031,686.7969 Q718.0938,686.6406 718.5156,686.2031 Q718.7813,685.9375 718.9297,685.8594 Q719.0781,685.7813 719.2813,685.7813 Q719.6094,685.7813 719.8672,686.0391 Q720.125,686.2969 720.125,686.6406 Q720.125,686.9844 719.7813,687.3906 Q719.2813,687.9688 718.4844,688.2969 Q717.4063,688.75 716.1094,688.75 Q714.5938,688.75 713.3906,688.125 Q712.4063,687.625 711.7188,686.5547 Q711.0313,685.4844 711.0313,684.2031 L711.0313,683.0469 Q711.0313,681.7188 711.6484,680.5703 Q712.2656,679.4219 713.3594,678.8047 Q714.4531,678.1875 715.6875,678.1875 Q716.4219,678.1875 717.0703,678.3516 Q717.7188,678.5156 718.2656,678.875 Z "/><text fill="#000000" font-family="sans-serif" font-size="12" lengthAdjust="spacingAndGlyphs" textLength="71" x="729.5" y="687.9102">Competence</text><line style="stroke: #808080; stroke-width: 1.5;" x1="701.5" x2="802.5" y1="699" y2="699"/><ellipse cx="711.5" cy="711.418" fill="none" rx="3" ry="3" style="stroke: #038048; stroke-width: 1.0;"/><text fill="#000000" font-family="sans-serif" font-size="11" lengthAdjust="spacingAndGlyphs" textLength="32" x="720.5" y="714.4189">bPalier</text><rect fill="none" height="6" style="stroke: #C82930; stroke-width: 1.0;" width="6" x="708.5" y="722.2539"/><text fill="#000000" font-family="sans-serif" font-size="11" lengthAdjust="spacingAndGlyphs" textLength="20" x="720.5" y="728.2549">mod</text><rect fill="none" height="6" style="stroke: #C82930; stroke-width: 1.0;" width="6" x="708.5" y="736.0898"/><text fill="#000000" font-family="sans-serif" font-size="11" lengthAdjust="spacingAndGlyphs" textLength="20" x="720.5" y="742.0908">total</text><line style="stroke: #808080; stroke-width: 1.5;" x1="701.5" x2="802.5" y1="748.5078" y2="748.5078"/><rect fill="#F24D5C" height="6" style="stroke: #C82930; stroke-width: 1.0;" width="6" x="708.5" y="757.9258"/><text fill="#000000" font-family="sans-serif" font-size="11" lengthAdjust="spacingAndGlyphs" textLength="57" x="720.5" y="763.9268">calcPoints()</text><!--class Stances--><rect fill="#FFFFFF" filter="url(#f5fvyj19ipu7z)" height="103.3438" id="Stances" style="stroke: #808080; stroke-width: 1.5;" width="83" x="582.5" y="667"/><ellipse cx="600.2" cy="683" fill="#ADD1B2" rx="11" ry="11" style="stroke: #808080; stroke-width: 1.0;"/><path d="M602.9656,678.875 Q603.1219,678.6563 603.3094,678.5469 Q603.4969,678.4375 603.7156,678.4375 Q604.0906,678.4375 604.325,678.6953 Q604.5594,678.9531 604.5594,679.5625 L604.5594,681.0156 Q604.5594,681.625 604.325,681.8906 Q604.0906,682.1563 603.7156,682.1563 Q603.3719,682.1563 603.1688,681.9531 Q602.9656,681.7656 602.8563,681.25 Q602.8094,680.8906 602.6219,680.7031 Q602.2938,680.3281 601.6844,680.1094 Q601.075,679.8906 600.45,679.8906 Q599.6844,679.8906 599.0516,680.2188 Q598.4188,680.5469 597.9266,681.2969 Q597.4344,682.0469 597.4344,683.0781 L597.4344,684.1719 Q597.4344,685.4063 598.325,686.2266 Q599.2156,687.0469 600.8094,687.0469 Q601.7469,687.0469 602.4031,686.7969 Q602.7938,686.6406 603.2156,686.2031 Q603.4813,685.9375 603.6297,685.8594 Q603.7781,685.7813 603.9813,685.7813 Q604.3094,685.7813 604.5672,686.0391 Q604.825,686.2969 604.825,686.6406 Q604.825,686.9844 604.4813,687.3906 Q603.9813,687.9688 603.1844,688.2969 Q602.1063,688.75 600.8094,688.75 Q599.2938,688.75 598.0906,688.125 Q597.1063,687.625 596.4188,686.5547 Q595.7313,685.4844 595.7313,684.2031 L595.7313,683.0469 Q595.7313,681.7188 596.3484,680.5703 Q596.9656,679.4219 598.0594,678.8047 Q599.1531,678.1875 600.3875,678.1875 Q601.1219,678.1875 601.7703,678.3516 Q602.4188,678.5156 602.9656,678.875 Z "/><text fill="#000000" font-family="sans-serif" font-size="12" lengthAdjust="spacingAndGlyphs" textLength="45" x="614.8" y="687.9102">Stances</text><line style="stroke: #808080; stroke-width: 1.5;" x1="583.5" x2="664.5" y1="699" y2="699"/><ellipse cx="593.5" cy="711.418" fill="none" rx="3" ry="3" style="stroke: #038048; stroke-width: 1.0;"/><text fill="#000000" font-family="sans-serif" font-size="11" lengthAdjust="spacingAndGlyphs" textLength="36" x="602.5" y="714.4189">modAtk</text><ellipse cx="593.5" cy="725.2539" fill="none" rx="3" ry="3" style="stroke: #038048; stroke-width: 1.0;"/><text fill="#000000" font-family="sans-serif" font-size="11" lengthAdjust="spacingAndGlyphs" textLength="15" x="602.5" y="728.2549">crit</text><ellipse cx="593.5" cy="739.0898" fill="none" rx="3" ry="3" style="stroke: #038048; stroke-width: 1.0;"/><text fill="#000000" font-family="sans-serif" font-size="11" lengthAdjust="spacingAndGlyphs" textLength="36" x="602.5" y="742.0908">modCrit</text><line style="stroke: #808080; stroke-width: 1.5;" x1="583.5" x2="664.5" y1="748.5078" y2="748.5078"/><rect fill="#F24D5C" height="6" style="stroke: #C82930; stroke-width: 1.0;" width="6" x="590.5" y="757.9258"/><text fill="#000000" font-family="sans-serif" font-size="11" lengthAdjust="spacingAndGlyphs" textLength="57" x="602.5" y="763.9268">calcPoints()</text><!--class Metier--><rect fill="#FFFFFF" filter="url(#f5fvyj19ipu7z)" height="61.8359" id="Metier" style="stroke: #808080; stroke-width: 1.5;" width="83" x="464.5" y="687.5"/><ellipse cx="487.6" cy="703.5" fill="#ADD1B2" rx="11" ry="11" style="stroke: #808080; stroke-width: 1.0;"/><path d="M490.3656,699.375 Q490.5219,699.1563 490.7094,699.0469 Q490.8969,698.9375 491.1156,698.9375 Q491.4906,698.9375 491.725,699.1953 Q491.9594,699.4531 491.9594,700.0625 L491.9594,701.5156 Q491.9594,702.125 491.725,702.3906 Q491.4906,702.6563 491.1156,702.6563 Q490.7719,702.6563 490.5688,702.4531 Q490.3656,702.2656 490.2563,701.75 Q490.2094,701.3906 490.0219,701.2031 Q489.6938,700.8281 489.0844,700.6094 Q488.475,700.3906 487.85,700.3906 Q487.0844,700.3906 486.4516,700.7188 Q485.8188,701.0469 485.3266,701.7969 Q484.8344,702.5469 484.8344,703.5781 L484.8344,704.6719 Q484.8344,705.9063 485.725,706.7266 Q486.6156,707.5469 488.2094,707.5469 Q489.1469,707.5469 489.8031,707.2969 Q490.1938,707.1406 490.6156,706.7031 Q490.8813,706.4375 491.0297,706.3594 Q491.1781,706.2813 491.3813,706.2813 Q491.7094,706.2813 491.9672,706.5391 Q492.225,706.7969 492.225,707.1406 Q492.225,707.4844 491.8813,707.8906 Q491.3813,708.4688 490.5844,708.7969 Q489.5063,709.25 488.2094,709.25 Q486.6938,709.25 485.4906,708.625 Q484.5063,708.125 483.8188,707.0547 Q483.1313,705.9844 483.1313,704.7031 L483.1313,703.5469 Q483.1313,702.2188 483.7484,701.0703 Q484.3656,699.9219 485.4594,699.3047 Q486.5531,698.6875 487.7875,698.6875 Q488.5219,698.6875 489.1703,698.8516 Q489.8188,699.0156 490.3656,699.375 Z "/><text fill="#000000" font-family="sans-serif" font-size="12" lengthAdjust="spacingAndGlyphs" textLength="33" x="503.4" y="708.4102">Metier</text><line style="stroke: #808080; stroke-width: 1.5;" x1="465.5" x2="546.5" y1="719.5" y2="719.5"/><line style="stroke: #808080; stroke-width: 1.5;" x1="465.5" x2="546.5" y1="727.5" y2="727.5"/><rect fill="#F24D5C" height="6" style="stroke: #C82930; stroke-width: 1.0;" width="6" x="472.5" y="736.918"/><text fill="#000000" font-family="sans-serif" font-size="11" lengthAdjust="spacingAndGlyphs" textLength="57" x="484.5" y="742.9189">calcPoints()</text><!--class Magie--><rect fill="#FFFFFF" filter="url(#f5fvyj19ipu7z)" height="75.6719" id="Magie" style="stroke: #808080; stroke-width: 1.5;" width="83" x="346.5" y="680.5"/><ellipse cx="369.6" cy="696.5" fill="#ADD1B2" rx="11" ry="11" style="stroke: #808080; stroke-width: 1.0;"/><path d="M372.3656,692.375 Q372.5219,692.1563 372.7094,692.0469 Q372.8969,691.9375 373.1156,691.9375 Q373.4906,691.9375 373.725,692.1953 Q373.9594,692.4531 373.9594,693.0625 L373.9594,694.5156 Q373.9594,695.125 373.725,695.3906 Q373.4906,695.6563 373.1156,695.6563 Q372.7719,695.6563 372.5688,695.4531 Q372.3656,695.2656 372.2563,694.75 Q372.2094,694.3906 372.0219,694.2031 Q371.6938,693.8281 371.0844,693.6094 Q370.475,693.3906 369.85,693.3906 Q369.0844,693.3906 368.4516,693.7188 Q367.8188,694.0469 367.3266,694.7969 Q366.8344,695.5469 366.8344,696.5781 L366.8344,697.6719 Q366.8344,698.9063 367.725,699.7266 Q368.6156,700.5469 370.2094,700.5469 Q371.1469,700.5469 371.8031,700.2969 Q372.1938,700.1406 372.6156,699.7031 Q372.8813,699.4375 373.0297,699.3594 Q373.1781,699.2813 373.3813,699.2813 Q373.7094,699.2813 373.9672,699.5391 Q374.225,699.7969 374.225,700.1406 Q374.225,700.4844 373.8813,700.8906 Q373.3813,701.4688 372.5844,701.7969 Q371.5063,702.25 370.2094,702.25 Q368.6938,702.25 367.4906,701.625 Q366.5063,701.125 365.8188,700.0547 Q365.1313,698.9844 365.1313,697.7031 L365.1313,696.5469 Q365.1313,695.2188 365.7484,694.0703 Q366.3656,692.9219 367.4594,692.3047 Q368.5531,691.6875 369.7875,691.6875 Q370.5219,691.6875 371.1703,691.8516 Q371.8188,692.0156 372.3656,692.375 Z "/><text fill="#000000" font-family="sans-serif" font-size="12" lengthAdjust="spacingAndGlyphs" textLength="33" x="385.4" y="701.4102">Magie</text><line style="stroke: #808080; stroke-width: 1.5;" x1="347.5" x2="428.5" y1="712.5" y2="712.5"/><ellipse cx="357.5" cy="724.918" fill="none" rx="3" ry="3" style="stroke: #038048; stroke-width: 1.0;"/><text fill="#000000" font-family="sans-serif" font-size="11" lengthAdjust="spacingAndGlyphs" textLength="22" x="366.5" y="727.9189">elem</text><line style="stroke: #808080; stroke-width: 1.5;" x1="347.5" x2="428.5" y1="734.3359" y2="734.3359"/><rect fill="#F24D5C" height="6" style="stroke: #C82930; stroke-width: 1.0;" width="6" x="354.5" y="743.7539"/><text fill="#000000" font-family="sans-serif" font-size="11" lengthAdjust="spacingAndGlyphs" textLength="57" x="366.5" y="749.7549">calcPoints()</text><!--class Humain--><rect fill="#FFFFFF" filter="url(#f5fvyj19ipu7z)" height="89.5078" id="Humain" style="stroke: #808080; stroke-width: 1.5;" width="76" x="418" y="8"/><ellipse cx="433" cy="24" fill="#A9DCDF" rx="11" ry="11" style="stroke: #808080; stroke-width: 1.0;"/><path d="M435.1875,25.7656 L431.0469,25.7656 L430.625,26.7969 L431.0469,26.7969 Q431.6563,26.7969 431.9219,27.0313 Q432.1875,27.2656 432.1875,27.6563 Q432.1875,28.0313 431.9219,28.2656 Q431.6563,28.5 431.0469,28.5 L428.75,28.5 Q428.1406,28.5 427.8828,28.2656 Q427.625,28.0313 427.625,27.6406 Q427.625,27.2656 427.8984,27.0234 Q428.1719,26.7813 428.7969,26.7969 L431.4688,20.1406 L430.3594,20.1406 Q429.75,20.1406 429.4844,19.9063 Q429.2188,19.6719 429.2188,19.2813 Q429.2188,18.9063 429.4844,18.6719 Q429.75,18.4375 430.3594,18.4375 L434.0313,18.4375 L437.4219,26.7969 Q438.0156,26.7969 438.2031,26.9375 Q438.5938,27.2031 438.5938,27.6563 Q438.5938,28.0313 438.3359,28.2656 Q438.0781,28.5 437.4688,28.5 L435.1719,28.5 Q434.5625,28.5 434.2969,28.2656 Q434.0313,28.0313 434.0313,27.6406 Q434.0313,27.2656 434.2969,27.0313 Q434.5625,26.7969 435.1719,26.7969 L435.5938,26.7969 L435.1875,25.7656 Z M434.4688,24.0625 L433.1094,20.6875 L431.7344,24.0625 L434.4688,24.0625 Z "/><text fill="#000000" font-family="sans-serif" font-size="12" font-style="italic" lengthAdjust="spacingAndGlyphs" textLength="44" x="447" y="28.9102">Humain</text><line style="stroke: #808080; stroke-width: 1.5;" x1="419" x2="493" y1="40" y2="40"/><ellipse cx="429" cy="52.418" fill="none" rx="3" ry="3" style="stroke: #038048; stroke-width: 1.0;"/><text fill="#000000" font-family="sans-serif" font-size="11" lengthAdjust="spacingAndGlyphs" textLength="20" x="438" y="55.4189">nom</text><ellipse cx="429" cy="66.2539" fill="none" rx="3" ry="3" style="stroke: #038048; stroke-width: 1.0;"/><text fill="#000000" font-family="sans-serif" font-size="11" lengthAdjust="spacingAndGlyphs" textLength="36" x="438" y="69.2549">prenom</text><ellipse cx="429" cy="80.0898" fill="none" rx="3" ry="3" style="stroke: #038048; stroke-width: 1.0;"/><text fill="#000000" font-family="sans-serif" font-size="11" lengthAdjust="spacingAndGlyphs" textLength="8" x="438" y="83.0908">id</text><line style="stroke: #808080; stroke-width: 1.5;" x1="419" x2="493" y1="89.5078" y2="89.5078"/><!--class MaitreDuJeu--><rect fill="#FFFFFF" filter="url(#f5fvyj19ipu7z)" height="48" id="MaitreDuJeu" style="stroke: #808080; stroke-width: 1.5;" width="101" x="353.5" y="158"/><ellipse cx="368.5" cy="174" fill="#ADD1B2" rx="11" ry="11" style="stroke: #808080; stroke-width: 1.0;"/><path d="M371.2656,169.875 Q371.4219,169.6563 371.6094,169.5469 Q371.7969,169.4375 372.0156,169.4375 Q372.3906,169.4375 372.625,169.6953 Q372.8594,169.9531 372.8594,170.5625 L372.8594,172.0156 Q372.8594,172.625 372.625,172.8906 Q372.3906,173.1563 372.0156,173.1563 Q371.6719,173.1563 371.4688,172.9531 Q371.2656,172.7656 371.1563,172.25 Q371.1094,171.8906 370.9219,171.7031 Q370.5938,171.3281 369.9844,171.1094 Q369.375,170.8906 368.75,170.8906 Q367.9844,170.8906 367.3516,171.2188 Q366.7188,171.5469 366.2266,172.2969 Q365.7344,173.0469 365.7344,174.0781 L365.7344,175.1719 Q365.7344,176.4063 366.625,177.2266 Q367.5156,178.0469 369.1094,178.0469 Q370.0469,178.0469 370.7031,177.7969 Q371.0938,177.6406 371.5156,177.2031 Q371.7813,176.9375 371.9297,176.8594 Q372.0781,176.7813 372.2813,176.7813 Q372.6094,176.7813 372.8672,177.0391 Q373.125,177.2969 373.125,177.6406 Q373.125,177.9844 372.7813,178.3906 Q372.2813,178.9688 371.4844,179.2969 Q370.4063,179.75 369.1094,179.75 Q367.5938,179.75 366.3906,179.125 Q365.4063,178.625 364.7188,177.5547 Q364.0313,176.4844 364.0313,175.2031 L364.0313,174.0469 Q364.0313,172.7188 364.6484,171.5703 Q365.2656,170.4219 366.3594,169.8047 Q367.4531,169.1875 368.6875,169.1875 Q369.4219,169.1875 370.0703,169.3516 Q370.7188,169.5156 371.2656,169.875 Z "/><text fill="#000000" font-family="sans-serif" font-size="12" lengthAdjust="spacingAndGlyphs" textLength="69" x="382.5" y="178.9102">MaitreDuJeu</text><line style="stroke: #808080; stroke-width: 1.5;" x1="354.5" x2="453.5" y1="190" y2="190"/><line style="stroke: #808080; stroke-width: 1.5;" x1="354.5" x2="453.5" y1="198" y2="198"/><!--class Joueur--><rect fill="#FFFFFF" filter="url(#f5fvyj19ipu7z)" height="48" id="Joueur" style="stroke: #808080; stroke-width: 1.5;" width="70" x="397" y="388"/><ellipse cx="412" cy="404" fill="#ADD1B2" rx="11" ry="11" style="stroke: #808080; stroke-width: 1.0;"/><path d="M414.7656,399.875 Q414.9219,399.6563 415.1094,399.5469 Q415.2969,399.4375 415.5156,399.4375 Q415.8906,399.4375 416.125,399.6953 Q416.3594,399.9531 416.3594,400.5625 L416.3594,402.0156 Q416.3594,402.625 416.125,402.8906 Q415.8906,403.1563 415.5156,403.1563 Q415.1719,403.1563 414.9688,402.9531 Q414.7656,402.7656 414.6563,402.25 Q414.6094,401.8906 414.4219,401.7031 Q414.0938,401.3281 413.4844,401.1094 Q412.875,400.8906 412.25,400.8906 Q411.4844,400.8906 410.8516,401.2188 Q410.2188,401.5469 409.7266,402.2969 Q409.2344,403.0469 409.2344,404.0781 L409.2344,405.1719 Q409.2344,406.4063 410.125,407.2266 Q411.0156,408.0469 412.6094,408.0469 Q413.5469,408.0469 414.2031,407.7969 Q414.5938,407.6406 415.0156,407.2031 Q415.2813,406.9375 415.4297,406.8594 Q415.5781,406.7813 415.7813,406.7813 Q416.1094,406.7813 416.3672,407.0391 Q416.625,407.2969 416.625,407.6406 Q416.625,407.9844 416.2813,408.3906 Q415.7813,408.9688 414.9844,409.2969 Q413.9063,409.75 412.6094,409.75 Q411.0938,409.75 409.8906,409.125 Q408.9063,408.625 408.2188,407.5547 Q407.5313,406.4844 407.5313,405.2031 L407.5313,404.0469 Q407.5313,402.7188 408.1484,401.5703 Q408.7656,400.4219 409.8594,399.8047 Q410.9531,399.1875 412.1875,399.1875 Q412.9219,399.1875 413.5703,399.3516 Q414.2188,399.5156 414.7656,399.875 Z "/><text fill="#000000" font-family="sans-serif" font-size="12" lengthAdjust="spacingAndGlyphs" textLength="38" x="426" y="408.9102">Joueur</text><line style="stroke: #808080; stroke-width: 1.5;" x1="398" x2="466" y1="420" y2="420"/><line style="stroke: #808080; stroke-width: 1.5;" x1="398" x2="466" y1="428" y2="428"/><!--class Cast--><rect fill="#FFFFFF" filter="url(#f5fvyj19ipu7z)" height="61.8359" id="Cast" style="stroke: #808080; stroke-width: 1.5;" width="58" x="397" y="266"/><ellipse cx="412" cy="282" fill="#ADD1B2" rx="11" ry="11" style="stroke: #808080; stroke-width: 1.0;"/><path d="M414.7656,277.875 Q414.9219,277.6563 415.1094,277.5469 Q415.2969,277.4375 415.5156,277.4375 Q415.8906,277.4375 416.125,277.6953 Q416.3594,277.9531 416.3594,278.5625 L416.3594,280.0156 Q416.3594,280.625 416.125,280.8906 Q415.8906,281.1563 415.5156,281.1563 Q415.1719,281.1563 414.9688,280.9531 Q414.7656,280.7656 414.6563,280.25 Q414.6094,279.8906 414.4219,279.7031 Q414.0938,279.3281 413.4844,279.1094 Q412.875,278.8906 412.25,278.8906 Q411.4844,278.8906 410.8516,279.2188 Q410.2188,279.5469 409.7266,280.2969 Q409.2344,281.0469 409.2344,282.0781 L409.2344,283.1719 Q409.2344,284.4063 410.125,285.2266 Q411.0156,286.0469 412.6094,286.0469 Q413.5469,286.0469 414.2031,285.7969 Q414.5938,285.6406 415.0156,285.2031 Q415.2813,284.9375 415.4297,284.8594 Q415.5781,284.7813 415.7813,284.7813 Q416.1094,284.7813 416.3672,285.0391 Q416.625,285.2969 416.625,285.6406 Q416.625,285.9844 416.2813,286.3906 Q415.7813,286.9688 414.9844,287.2969 Q413.9063,287.75 412.6094,287.75 Q411.0938,287.75 409.8906,287.125 Q408.9063,286.625 408.2188,285.5547 Q407.5313,284.4844 407.5313,283.2031 L407.5313,282.0469 Q407.5313,280.7188 408.1484,279.5703 Q408.7656,278.4219 409.8594,277.8047 Q410.9531,277.1875 412.1875,277.1875 Q412.9219,277.1875 413.5703,277.3516 Q414.2188,277.5156 414.7656,277.875 Z "/><text fill="#000000" font-family="sans-serif" font-size="12" lengthAdjust="spacingAndGlyphs" textLength="26" x="426" y="286.9102">Cast</text><line style="stroke: #808080; stroke-width: 1.5;" x1="398" x2="454" y1="298" y2="298"/><ellipse cx="408" cy="310.418" fill="none" rx="3" ry="3" style="stroke: #038048; stroke-width: 1.0;"/><text fill="#000000" font-family="sans-serif" font-size="11" lengthAdjust="spacingAndGlyphs" textLength="20" x="417" y="313.4189">nom</text><line style="stroke: #808080; stroke-width: 1.5;" x1="398" x2="454" y1="319.8359" y2="319.8359"/><!--class Personnage--><rect fill="#FFFFFF" filter="url(#f5fvyj19ipu7z)" height="89.5078" id="Personnage" style="stroke: #808080; stroke-width: 1.5;" width="100" x="338" y="502.5"/><ellipse cx="353" cy="518.5" fill="#ADD1B2" rx="11" ry="11" style="stroke: #808080; stroke-width: 1.0;"/><path d="M355.7656,514.375 Q355.9219,514.1563 356.1094,514.0469 Q356.2969,513.9375 356.5156,513.9375 Q356.8906,513.9375 357.125,514.1953 Q357.3594,514.4531 357.3594,515.0625 L357.3594,516.5156 Q357.3594,517.125 357.125,517.3906 Q356.8906,517.6563 356.5156,517.6563 Q356.1719,517.6563 355.9688,517.4531 Q355.7656,517.2656 355.6563,516.75 Q355.6094,516.3906 355.4219,516.2031 Q355.0938,515.8281 354.4844,515.6094 Q353.875,515.3906 353.25,515.3906 Q352.4844,515.3906 351.8516,515.7188 Q351.2188,516.0469 350.7266,516.7969 Q350.2344,517.5469 350.2344,518.5781 L350.2344,519.6719 Q350.2344,520.9063 351.125,521.7266 Q352.0156,522.5469 353.6094,522.5469 Q354.5469,522.5469 355.2031,522.2969 Q355.5938,522.1406 356.0156,521.7031 Q356.2813,521.4375 356.4297,521.3594 Q356.5781,521.2813 356.7813,521.2813 Q357.1094,521.2813 357.3672,521.5391 Q357.625,521.7969 357.625,522.1406 Q357.625,522.4844 357.2813,522.8906 Q356.7813,523.4688 355.9844,523.7969 Q354.9063,524.25 353.6094,524.25 Q352.0938,524.25 350.8906,523.625 Q349.9063,523.125 349.2188,522.0547 Q348.5313,520.9844 348.5313,519.7031 L348.5313,518.5469 Q348.5313,517.2188 349.1484,516.0703 Q349.7656,514.9219 350.8594,514.3047 Q351.9531,513.6875 353.1875,513.6875 Q353.9219,513.6875 354.5703,513.8516 Q355.2188,514.0156 355.7656,514.375 Z "/><text fill="#000000" font-family="sans-serif" font-size="12" lengthAdjust="spacingAndGlyphs" textLength="68" x="367" y="523.4102">Personnage</text><line style="stroke: #808080; stroke-width: 1.5;" x1="339" x2="437" y1="534.5" y2="534.5"/><ellipse cx="349" cy="546.918" fill="none" rx="3" ry="3" style="stroke: #038048; stroke-width: 1.0;"/><text fill="#000000" font-family="sans-serif" font-size="11" lengthAdjust="spacingAndGlyphs" textLength="20" x="358" y="549.9189">nom</text><ellipse cx="349" cy="560.7539" fill="none" rx="3" ry="3" style="stroke: #038048; stroke-width: 1.0;"/><text fill="#000000" font-family="sans-serif" font-size="11" lengthAdjust="spacingAndGlyphs" textLength="21" x="358" y="563.7549">taille</text><rect fill="none" height="6" style="stroke: #C82930; stroke-width: 1.0;" width="6" x="346" y="571.5898"/><text fill="#000000" font-family="sans-serif" font-size="11" lengthAdjust="spacingAndGlyphs" textLength="20" x="358" y="577.5908">mod</text><line style="stroke: #808080; stroke-width: 1.5;" x1="339" x2="437" y1="584.0078" y2="584.0078"/><!--class Race--><rect fill="#FFFFFF" filter="url(#f5fvyj19ipu7z)" height="89.5078" id="Race" style="stroke: #808080; stroke-width: 1.5;" width="76" x="80" y="673.5"/><ellipse cx="101.75" cy="689.5" fill="#ADD1B2" rx="11" ry="11" style="stroke: #808080; stroke-width: 1.0;"/><path d="M104.5156,685.375 Q104.6719,685.1563 104.8594,685.0469 Q105.0469,684.9375 105.2656,684.9375 Q105.6406,684.9375 105.875,685.1953 Q106.1094,685.4531 106.1094,686.0625 L106.1094,687.5156 Q106.1094,688.125 105.875,688.3906 Q105.6406,688.6563 105.2656,688.6563 Q104.9219,688.6563 104.7188,688.4531 Q104.5156,688.2656 104.4063,687.75 Q104.3594,687.3906 104.1719,687.2031 Q103.8438,686.8281 103.2344,686.6094 Q102.625,686.3906 102,686.3906 Q101.2344,686.3906 100.6016,686.7188 Q99.9688,687.0469 99.4766,687.7969 Q98.9844,688.5469 98.9844,689.5781 L98.9844,690.6719 Q98.9844,691.9063 99.875,692.7266 Q100.7656,693.5469 102.3594,693.5469 Q103.2969,693.5469 103.9531,693.2969 Q104.3438,693.1406 104.7656,692.7031 Q105.0313,692.4375 105.1797,692.3594 Q105.3281,692.2813 105.5313,692.2813 Q105.8594,692.2813 106.1172,692.5391 Q106.375,692.7969 106.375,693.1406 Q106.375,693.4844 106.0313,693.8906 Q105.5313,694.4688 104.7344,694.7969 Q103.6563,695.25 102.3594,695.25 Q100.8438,695.25 99.6406,694.625 Q98.6563,694.125 97.9688,693.0547 Q97.2813,691.9844 97.2813,690.7031 L97.2813,689.5469 Q97.2813,688.2188 97.8984,687.0703 Q98.5156,685.9219 99.6094,685.3047 Q100.7031,684.6875 101.9375,684.6875 Q102.6719,684.6875 103.3203,684.8516 Q103.9688,685.0156 104.5156,685.375 Z "/><text fill="#000000" font-family="sans-serif" font-size="12" lengthAdjust="spacingAndGlyphs" textLength="29" x="117.25" y="694.4102">Race</text><line style="stroke: #808080; stroke-width: 1.5;" x1="81" x2="155" y1="705.5" y2="705.5"/><ellipse cx="91" cy="717.918" fill="none" rx="3" ry="3" style="stroke: #038048; stroke-width: 1.0;"/><text fill="#000000" font-family="sans-serif" font-size="11" lengthAdjust="spacingAndGlyphs" textLength="20" x="100" y="720.9189">nom</text><ellipse cx="91" cy="731.7539" fill="none" rx="3" ry="3" style="stroke: #038048; stroke-width: 1.0;"/><text fill="#000000" font-family="sans-serif" font-size="11" lengthAdjust="spacingAndGlyphs" textLength="35" x="100" y="734.7549">rBonus</text><ellipse cx="91" cy="745.5898" fill="none" rx="3" ry="3" style="stroke: #038048; stroke-width: 1.0;"/><text fill="#000000" font-family="sans-serif" font-size="11" lengthAdjust="spacingAndGlyphs" textLength="50" x="100" y="748.5908">uniqueSkill</text><line style="stroke: #808080; stroke-width: 1.5;" x1="81" x2="155" y1="755.0078" y2="755.0078"/><!--class Connaissances--><rect fill="#FFFFFF" filter="url(#f5fvyj19ipu7z)" height="103.3438" id="Connaissances" style="stroke: #808080; stroke-width: 1.5;" width="117" x="889.5" y="496"/><ellipse cx="904.5" cy="512" fill="#A9DCDF" rx="11" ry="11" style="stroke: #808080; stroke-width: 1.0;"/><path d="M906.6875,513.7656 L902.5469,513.7656 L902.125,514.7969 L902.5469,514.7969 Q903.1563,514.7969 903.4219,515.0313 Q903.6875,515.2656 903.6875,515.6563 Q903.6875,516.0313 903.4219,516.2656 Q903.1563,516.5 902.5469,516.5 L900.25,516.5 Q899.6406,516.5 899.3828,516.2656 Q899.125,516.0313 899.125,515.6406 Q899.125,515.2656 899.3984,515.0234 Q899.6719,514.7813 900.2969,514.7969 L902.9688,508.1406 L901.8594,508.1406 Q901.25,508.1406 900.9844,507.9063 Q900.7188,507.6719 900.7188,507.2813 Q900.7188,506.9063 900.9844,506.6719 Q901.25,506.4375 901.8594,506.4375 L905.5313,506.4375 L908.9219,514.7969 Q909.5156,514.7969 909.7031,514.9375 Q910.0938,515.2031 910.0938,515.6563 Q910.0938,516.0313 909.8359,516.2656 Q909.5781,516.5 908.9688,516.5 L906.6719,516.5 Q906.0625,516.5 905.7969,516.2656 Q905.5313,516.0313 905.5313,515.6406 Q905.5313,515.2656 905.7969,515.0313 Q906.0625,514.7969 906.6719,514.7969 L907.0938,514.7969 L906.6875,513.7656 Z M905.9688,512.0625 L904.6094,508.6875 L903.2344,512.0625 L905.9688,512.0625 Z "/><text fill="#000000" font-family="sans-serif" font-size="12" font-style="italic" lengthAdjust="spacingAndGlyphs" textLength="85" x="918.5" y="516.9102">Connaissances</text><line style="stroke: #808080; stroke-width: 1.5;" x1="890.5" x2="1005.5" y1="528" y2="528"/><ellipse cx="900.5" cy="540.418" fill="none" rx="3" ry="3" style="stroke: #038048; stroke-width: 1.0;"/><text fill="#000000" font-family="sans-serif" font-size="11" lengthAdjust="spacingAndGlyphs" textLength="20" x="909.5" y="543.4189">nom</text><ellipse cx="900.5" cy="554.2539" fill="none" rx="3" ry="3" style="stroke: #038048; stroke-width: 1.0;"/><text fill="#000000" font-family="sans-serif" font-size="11" lengthAdjust="spacingAndGlyphs" textLength="32" x="909.5" y="557.2549">niveau</text><ellipse cx="900.5" cy="568.0898" fill="none" rx="3" ry="3" style="stroke: #038048; stroke-width: 1.0;"/><text fill="#000000" font-family="sans-serif" font-size="11" lengthAdjust="spacingAndGlyphs" textLength="53" x="909.5" y="571.0908">description</text><rect fill="none" height="6" style="stroke: #C82930; stroke-width: 1.0;" width="6" x="897.5" y="578.9258"/><text fill="#000000" font-family="sans-serif" font-size="11" lengthAdjust="spacingAndGlyphs" textLength="29" x="909.5" y="584.9268">points</text><line style="stroke: #808080; stroke-width: 1.5;" x1="890.5" x2="1005.5" y1="591.3438" y2="591.3438"/><!--link Humain to Joueur--><path d="M470.301,118.033 C480.396,174.126 489.47,257.471 473,328 C467.993,349.442 456.603,371.705 447.096,387.769 " fill="none" id="Humain-Joueur" style="stroke: #000000; stroke-width: 1.0;"/><polygon fill="none" points="463.412,119.275,466.508,98.313,477.16,116.63,463.412,119.275" style="stroke: #000000; stroke-width: 1.0;"/><!--link Humain to MaitreDuJeu--><path d="M430.23,116.937 C424.264,131.509 418.281,146.12 413.539,157.702 " fill="none" id="Humain-MaitreDuJeu" style="stroke: #000000; stroke-width: 1.0;"/><polygon fill="none" points="423.902,113.918,437.959,98.062,436.858,119.223,423.902,113.918" style="stroke: #000000; stroke-width: 1.0;"/><!--link Joueur to Personnage--><path d="M420.232,448.704 C414.783,465.237 408.257,485.039 402.506,502.487 " fill="none" id="Joueur-Personnage" style="stroke: #000000; stroke-width: 1.0;"/><polygon fill="#FFFFFF" points="424.336,436.254,418.6587,440.7002,420.5793,447.6508,426.2566,443.2046,424.336,436.254" style="stroke: #000000; stroke-width: 1.0;"/><text fill="#000000" font-family="sans-serif" font-size="13" lengthAdjust="spacingAndGlyphs" textLength="7" x="414.6148" y="457.6539">1</text><text fill="#000000" font-family="sans-serif" font-size="13" lengthAdjust="spacingAndGlyphs" textLength="5" x="399.4195" y="491.6004">*</text><!--link MaitreDuJeu to Cast--><path d="M411.034,219.127 C413.949,234.102 417.294,251.281 420.081,265.596 " fill="none" id="MaitreDuJeu-Cast" style="stroke: #000000; stroke-width: 1.0;"/><polygon fill="#FFFFFF" points="408.505,206.14,405.7252,212.7938,410.798,217.9189,413.5778,211.2651,408.505,206.14" style="stroke: #000000; stroke-width: 1.0;"/><text fill="#000000" font-family="sans-serif" font-size="13" lengthAdjust="spacingAndGlyphs" textLength="7" x="401.75" y="227.5121">1</text><text fill="#000000" font-family="sans-serif" font-size="13" lengthAdjust="spacingAndGlyphs" textLength="5" x="413.3446" y="255.0172">*</text><!--link MaitreDuJeu to Personnage--><path d="M391.288,218.707 C386.764,233.186 382.239,250.195 380,266 C368.28,348.725 375.853,446.498 382.13,502.031 " fill="none" id="MaitreDuJeu-Personnage" style="stroke: #000000; stroke-width: 1.0;"/><polygon fill="#FFFFFF" points="395.376,206.227,389.7069,210.6836,391.6403,217.6307,397.3094,213.1741,395.376,206.227" style="stroke: #000000; stroke-width: 1.0;"/><text fill="#000000" font-family="sans-serif" font-size="13" lengthAdjust="spacingAndGlyphs" textLength="7" x="385.4208" y="227.6203">1</text><text fill="#000000" font-family="sans-serif" font-size="13" lengthAdjust="spacingAndGlyphs" textLength="5" x="375.9007" y="491.7348">*</text><!--link Cast to Joueur--><path d="M428.316,341.616 C429.151,357.353 430.062,374.497 430.768,387.807 " fill="none" id="Cast-Joueur" style="stroke: #000000; stroke-width: 1.0;"/><polygon fill="#FFFFFF" points="427.608,328.282,423.9321,334.4859,428.2449,340.2651,431.9208,334.0612,427.608,328.282" style="stroke: #000000; stroke-width: 1.0;"/><text fill="#000000" font-family="sans-serif" font-size="13" lengthAdjust="spacingAndGlyphs" textLength="5" x="422.438" y="349.3144">*</text><text fill="#000000" font-family="sans-serif" font-size="13" lengthAdjust="spacingAndGlyphs" textLength="5" x="424.8117" y="377.0977">*</text><!--link Connaissances to pckgConn--><path d="M948,619.496 C948,620.2054 948,620.9161 948,621.6279 C948,621.9838 948,622.34 948,622.6964 " fill="none" id="Connaissances-pckgConn" style="stroke: #000000; stroke-width: 1.0;"/><polygon fill="none" points="941,619.206,948,599.206,955,619.206,941,619.206" style="stroke: #000000; stroke-width: 1.0;"/><!--link Competence to Stat--><path d="M713.91,780.803 C704.881,791.737 694.489,802.132 683,810 C569.648,887.629 401.694,911.34 332.522,918.051 " fill="none" id="Competence-Stat" style="stroke: #000000; stroke-width: 1.0;"/><polygon fill="#FFFFFF" points="722.141,770.22,715.3003,772.5013,714.775,779.6932,721.6157,777.4119,722.141,770.22" style="stroke: #000000; stroke-width: 1.0;"/><text fill="#000000" font-family="sans-serif" font-size="13" lengthAdjust="spacingAndGlyphs" textLength="5" x="712.7928" y="791.7405">*</text><text fill="#000000" font-family="sans-serif" font-size="13" lengthAdjust="spacingAndGlyphs" textLength="22" x="340.6278" y="913.4269">0..2</text><!--link Personnage to Stat--><path d="M331.354,604.248 C330.883,605.159 330.431,606.077 330,607 C295.324,681.296 291.328,776.158 293.963,841.978 " fill="none" id="Personnage-Stat" style="stroke: #000000; stroke-width: 1.0;"/><polygon fill="#FFFFFF" points="338.455,592.802,331.893,595.7921,332.1293,602.9993,338.6913,600.0092,338.455,592.802" style="stroke: #000000; stroke-width: 1.0;"/><text fill="#000000" font-family="sans-serif" font-size="13" lengthAdjust="spacingAndGlyphs" textLength="5" x="325.1603" y="596.3094">*</text><text fill="#000000" font-family="sans-serif" font-size="13" lengthAdjust="spacingAndGlyphs" textLength="7" x="285.9587" y="831.1628">6</text><!--link Personnage to Jauge--><path d="M324.764,550.553 C239.582,554.801 94.8321,567.752 62,607 C2.4335,678.207 26.2037,793.625 48.7257,862.778 " fill="none" id="Personnage-Jauge" style="stroke: #000000; stroke-width: 1.0;"/><polygon fill="#FFFFFF" points="337.898,549.943,331.7185,546.2262,325.911,550.5008,332.0904,554.2176,337.898,549.943" style="stroke: #000000; stroke-width: 1.0;"/><text fill="#000000" font-family="sans-serif" font-size="13" lengthAdjust="spacingAndGlyphs" textLength="5" x="325.105" y="546.0581">*</text><text fill="#000000" font-family="sans-serif" font-size="13" lengthAdjust="spacingAndGlyphs" textLength="7" x="38.5845" y="852.1518">4</text><!--link Personnage to Resistance--><path d="M326.355,573.64 C311.108,582.303 296.007,593.35 285,607 C226.475,679.578 202.732,787.326 193.215,855.715 " fill="none" id="Personnage-Resistance" style="stroke: #000000; stroke-width: 1.0;"/><polygon fill="#FFFFFF" points="337.977,567.476,330.8022,566.7534,327.3757,573.0984,334.5505,573.821,337.977,567.476" style="stroke: #000000; stroke-width: 1.0;"/><text fill="#000000" font-family="sans-serif" font-size="13" lengthAdjust="spacingAndGlyphs" textLength="5" x="324.9344" y="566.8695">*</text><text fill="#000000" font-family="sans-serif" font-size="13" lengthAdjust="spacingAndGlyphs" textLength="7" x="186.512" y="845.1583">7</text><!--link Personnage to Race--><path d="M337.77,552.349 C293.107,558.036 228.079,572.121 183,607 C161.084,623.957 145.112,650.556 134.485,673.407 " fill="none" id="Personnage-Race" style="stroke: #000000; stroke-width: 1.0;"/><text fill="#000000" font-family="sans-serif" font-size="13" lengthAdjust="spacingAndGlyphs" textLength="5" x="325.0253" y="549.4433">*</text><text fill="#000000" font-family="sans-serif" font-size="13" lengthAdjust="spacingAndGlyphs" textLength="7" x="129.5545" y="662.5077">1</text><!--link Personnage to Langue--><path d="M451.542,549.913 C557.191,553.42 763.105,565.526 821,607 C845.301,624.409 859.45,655.656 867.294,680.492 " fill="none" id="Personnage-Langue" style="stroke: #000000; stroke-width: 1.0;"/><polygon fill="#FFFFFF" points="438.248,549.5,444.1207,553.6847,450.2422,549.8732,444.3695,545.6885,438.248,549.5" style="stroke: #000000; stroke-width: 1.0;"/><text fill="#000000" font-family="sans-serif" font-size="13" lengthAdjust="spacingAndGlyphs" textLength="5" x="445.9954" y="546.1758">*</text><text fill="#000000" font-family="sans-serif" font-size="13" lengthAdjust="spacingAndGlyphs" textLength="20" x="843.8451" y="669.5671">1..*</text><!--link Personnage to Competence--><path d="M451.219,555.107 C526.343,563.964 646.163,581.572 683,607 C704.219,621.647 720.223,645.162 731.448,666.742 " fill="none" id="Personnage-Competence" style="stroke: #000000; stroke-width: 1.0;"/><polygon fill="#FFFFFF" points="438.199,553.606,443.7015,558.2667,450.1201,554.9801,444.6176,550.3194,438.199,553.606" style="stroke: #000000; stroke-width: 1.0;"/><text fill="#000000" font-family="sans-serif" font-size="13" lengthAdjust="spacingAndGlyphs" textLength="5" x="445.9392" y="569.2349">*</text><text fill="#000000" font-family="sans-serif" font-size="13" lengthAdjust="spacingAndGlyphs" textLength="5" x="723.3504" y="656.2077">*</text><!--link Personnage to Metier--><path d="M443.857,602.907 C444.933,604.268 445.982,605.633 447,607 C465.833,632.292 482.26,664.383 492.964,687.457 " fill="none" id="Personnage-Metier" style="stroke: #000000; stroke-width: 1.0;"/><polygon fill="#FFFFFF" points="435.172,592.606,435.9817,599.7715,442.9074,601.7801,442.0977,594.6146,435.172,592.606" style="stroke: #000000; stroke-width: 1.0;"/><text fill="#000000" font-family="sans-serif" font-size="13" lengthAdjust="spacingAndGlyphs" textLength="5" x="436.454" y="613.6285">*</text><text fill="#000000" font-family="sans-serif" font-size="13" lengthAdjust="spacingAndGlyphs" textLength="5" x="484.5655" y="676.4679">*</text><!--link Personnage to Stances--><path d="M451.386,557.447 C487.962,565.334 532.917,579.989 565,607 C583.633,622.687 597.255,645.799 606.684,666.835 " fill="none" id="Personnage-Stances" style="stroke: #000000; stroke-width: 1.0;"/><polygon fill="#FFFFFF" points="438.329,554.837,443.4283,559.9357,450.0961,557.1896,444.9968,552.0909,438.329,554.837" style="stroke: #000000; stroke-width: 1.0;"/><text fill="#000000" font-family="sans-serif" font-size="13" lengthAdjust="spacingAndGlyphs" textLength="5" x="446.0883" y="570.6467">*</text><text fill="#000000" font-family="sans-serif" font-size="13" lengthAdjust="spacingAndGlyphs" textLength="5" x="599.0212" y="656.3132">*</text><!--link Personnage to Magie--><path d="M388,606.114 C388,630.628 388,658.512 388,680.249 " fill="none" id="Personnage-Magie" style="stroke: #000000; stroke-width: 1.0;"/><polygon fill="#FFFFFF" points="388,592.903,384,598.903,388,604.903,392,598.903,388,592.903" style="stroke: #000000; stroke-width: 1.0;"/><text fill="#000000" font-family="sans-serif" font-size="13" lengthAdjust="spacingAndGlyphs" textLength="5" x="382.6641" y="613.6308">*</text><text fill="#000000" font-family="sans-serif" font-size="13" lengthAdjust="spacingAndGlyphs" textLength="5" x="382.5547" y="669.5662">*</text><!--
@startuml astarun
skinparam class {
	BackgroundColor white
	ArrowColor black
	BorderColor gray
}

abstract class Humain {
	+ nom
	+ prenom
	+ id
}

class MaitreDuJeu {
}

class Joueur {
}

class Cast {
	+ nom
}

class Personnage {
	+ nom
	+ taille
	- mod
}

class Race {
	+ nom
	+ rBonus
	+ uniqueSkill
}
together {
	class Stat {
		+ nom
		+ valeur
		+ rBonus
		+ dBonus
		+ sBonus
		- total
		- mod
		- points
	}

	class Resistance {
		+ elem
		+ valeur
		+ niveau
		+ bonus
		- total
		- points 
	}

	class Jauge {
		+ nom
		+ valeur
		+ bonus
		- total
		- points
	}
}

abstract class Connaissances {
	+ nom
	+ niveau
	+ description
	- points
}
package "" as pckgConn <<Rectangle>> {
	
	class Langue {
		+ nom
		+ points
	}

	class Competence {
		+ bPalier
		- mod
		- total
		- calcPoints()
	}

	class Stances {
		+ modAtk
		+ crit
		+ modCrit
		- calcPoints()
	}

	class Metier {
		- calcPoints()
	}

	class Magie {
		+ elem
		- calcPoints()
	}
}

Humain ^- - Joueur
Humain ^- - MaitreDuJeu

Joueur "1" o- - "*" Personnage
MaitreDuJeu "1" o- - "*" Cast
MaitreDuJeu "1" o- - "*" Personnage
Cast "*" o- - "*" Joueur
Connaissances ^- - pckgConn

Competence "*" o- - "0..2" Stat

Personnage "*" o- - "6" Stat 
Personnage "*" o- - "4" Jauge 
Personnage "*" o- - "7" Resistance
Personnage "*" - - "1" Race
Personnage "*" o- - "1..*" Langue
Personnage "*" o- - "*" Competence
Personnage "*" o- - "*" Metier
Personnage "*" o- - "*" Stances
Personnage "*" o- - "*" Magie

@enduml

PlantUML version 1.2019.06(Fri May 24 19:10:25 CEST 2019)
(GPL source distribution)
Java Runtime: Java(TM) SE Runtime Environment
JVM: Java HotSpot(TM) 64-Bit Server VM
Java Version: 1.8.0_211-b12
Operating System: Windows 10
OS Version: 10.0
Default Encoding: Cp1252
Language: fr
Country: FR
--></g></svg>