<?xml version="1.0" encoding="UTF-8" standalone="no"?><svg xmlns="http://www.w3.org/2000/svg" xmlns:xlink="http://www.w3.org/1999/xlink" contentScriptType="application/ecmascript" contentStyleType="text/css" height="673px" preserveAspectRatio="none" style="width:1155px;height:673px;" version="1.1" viewBox="0 0 1155 673" width="1155px" zoomAndPan="magnify"><defs><filter height="300%" id="f1qkl1tritgczb" width="300%" x="-1" y="-1"><feGaussianBlur result="blurOut" stdDeviation="2.0"/><feColorMatrix in="blurOut" result="blurOut2" type="matrix" values="0 0 0 0 0 0 0 0 0 0 0 0 0 0 0 0 0 0 .4 0"/><feOffset dx="4.0" dy="4.0" in="blurOut2" result="blurOut3"/><feBlend in="SourceGraphic" in2="blurOut3" mode="normal"/></filter></defs><g><!--cluster pckgConn--><rect fill="#FFFFFF" filter="url(#f1qkl1tritgczb)" height="171" style="stroke: #000000; stroke-width: 1.5;" width="635" x="459" y="285"/><text fill="#000000" font-family="sans-serif" font-size="14" font-weight="bold" lengthAdjust="spacingAndGlyphs" textLength="0" x="778.5" y="301.5332"/><!--class Stat--><rect fill="#FFFFFF" filter="url(#f1qkl1tritgczb)" height="158.6875" id="Stat" style="stroke: #808080; stroke-width: 1.5;" width="63" x="406.5" y="504"/><ellipse cx="426" cy="520" fill="#ADD1B2" rx="11" ry="11" style="stroke: #808080; stroke-width: 1.0;"/><path d="M428.7656,515.875 Q428.9219,515.6563 429.1094,515.5469 Q429.2969,515.4375 429.5156,515.4375 Q429.8906,515.4375 430.125,515.6953 Q430.3594,515.9531 430.3594,516.5625 L430.3594,518.0156 Q430.3594,518.625 430.125,518.8906 Q429.8906,519.1563 429.5156,519.1563 Q429.1719,519.1563 428.9688,518.9531 Q428.7656,518.7656 428.6563,518.25 Q428.6094,517.8906 428.4219,517.7031 Q428.0938,517.3281 427.4844,517.1094 Q426.875,516.8906 426.25,516.8906 Q425.4844,516.8906 424.8516,517.2188 Q424.2188,517.5469 423.7266,518.2969 Q423.2344,519.0469 423.2344,520.0781 L423.2344,521.1719 Q423.2344,522.4063 424.125,523.2266 Q425.0156,524.0469 426.6094,524.0469 Q427.5469,524.0469 428.2031,523.7969 Q428.5938,523.6406 429.0156,523.2031 Q429.2813,522.9375 429.4297,522.8594 Q429.5781,522.7813 429.7813,522.7813 Q430.1094,522.7813 430.3672,523.0391 Q430.625,523.2969 430.625,523.6406 Q430.625,523.9844 430.2813,524.3906 Q429.7813,524.9688 428.9844,525.2969 Q427.9063,525.75 426.6094,525.75 Q425.0938,525.75 423.8906,525.125 Q422.9063,524.625 422.2188,523.5547 Q421.5313,522.4844 421.5313,521.2031 L421.5313,520.0469 Q421.5313,518.7188 422.1484,517.5703 Q422.7656,516.4219 423.8594,515.8047 Q424.9531,515.1875 426.1875,515.1875 Q426.9219,515.1875 427.5703,515.3516 Q428.2188,515.5156 428.7656,515.875 Z "/><text fill="#000000" font-family="sans-serif" font-size="12" lengthAdjust="spacingAndGlyphs" textLength="21" x="441" y="524.9102">Stat</text><line style="stroke: #808080; stroke-width: 1.5;" x1="407.5" x2="468.5" y1="536" y2="536"/><ellipse cx="417.5" cy="548.418" fill="none" rx="3" ry="3" style="stroke: #038048; stroke-width: 1.0;"/><text fill="#000000" font-family="sans-serif" font-size="11" lengthAdjust="spacingAndGlyphs" textLength="20" x="426.5" y="551.4189">nom</text><ellipse cx="417.5" cy="562.2539" fill="none" rx="3" ry="3" style="stroke: #038048; stroke-width: 1.0;"/><text fill="#000000" font-family="sans-serif" font-size="11" lengthAdjust="spacingAndGlyphs" textLength="30" x="426.5" y="565.2549">valeur</text><ellipse cx="417.5" cy="576.0898" fill="none" rx="3" ry="3" style="stroke: #038048; stroke-width: 1.0;"/><text fill="#000000" font-family="sans-serif" font-size="11" lengthAdjust="spacingAndGlyphs" textLength="35" x="426.5" y="579.0908">rBonus</text><ellipse cx="417.5" cy="589.9258" fill="none" rx="3" ry="3" style="stroke: #038048; stroke-width: 1.0;"/><text fill="#000000" font-family="sans-serif" font-size="11" lengthAdjust="spacingAndGlyphs" textLength="37" x="426.5" y="592.9268">dBonus</text><ellipse cx="417.5" cy="603.7617" fill="none" rx="3" ry="3" style="stroke: #038048; stroke-width: 1.0;"/><text fill="#000000" font-family="sans-serif" font-size="11" lengthAdjust="spacingAndGlyphs" textLength="37" x="426.5" y="606.7627">sBonus</text><rect fill="none" height="6" style="stroke: #C82930; stroke-width: 1.0;" width="6" x="414.5" y="614.5977"/><text fill="#000000" font-family="sans-serif" font-size="11" lengthAdjust="spacingAndGlyphs" textLength="20" x="426.5" y="620.5986">total</text><rect fill="none" height="6" style="stroke: #C82930; stroke-width: 1.0;" width="6" x="414.5" y="628.4336"/><text fill="#000000" font-family="sans-serif" font-size="11" lengthAdjust="spacingAndGlyphs" textLength="20" x="426.5" y="634.4346">mod</text><rect fill="none" height="6" style="stroke: #C82930; stroke-width: 1.0;" width="6" x="414.5" y="642.2695"/><text fill="#000000" font-family="sans-serif" font-size="11" lengthAdjust="spacingAndGlyphs" textLength="29" x="426.5" y="648.2705">points</text><line style="stroke: #808080; stroke-width: 1.5;" x1="407.5" x2="468.5" y1="654.6875" y2="654.6875"/><!--class Resistance--><rect fill="#FFFFFF" filter="url(#f1qkl1tritgczb)" height="131.0156" id="Resistance" style="stroke: #808080; stroke-width: 1.5;" width="95" x="276.5" y="518"/><ellipse cx="291.5" cy="534" fill="#ADD1B2" rx="11" ry="11" style="stroke: #808080; stroke-width: 1.0;"/><path d="M294.2656,529.875 Q294.4219,529.6563 294.6094,529.5469 Q294.7969,529.4375 295.0156,529.4375 Q295.3906,529.4375 295.625,529.6953 Q295.8594,529.9531 295.8594,530.5625 L295.8594,532.0156 Q295.8594,532.625 295.625,532.8906 Q295.3906,533.1563 295.0156,533.1563 Q294.6719,533.1563 294.4688,532.9531 Q294.2656,532.7656 294.1563,532.25 Q294.1094,531.8906 293.9219,531.7031 Q293.5938,531.3281 292.9844,531.1094 Q292.375,530.8906 291.75,530.8906 Q290.9844,530.8906 290.3516,531.2188 Q289.7188,531.5469 289.2266,532.2969 Q288.7344,533.0469 288.7344,534.0781 L288.7344,535.1719 Q288.7344,536.4063 289.625,537.2266 Q290.5156,538.0469 292.1094,538.0469 Q293.0469,538.0469 293.7031,537.7969 Q294.0938,537.6406 294.5156,537.2031 Q294.7813,536.9375 294.9297,536.8594 Q295.0781,536.7813 295.2813,536.7813 Q295.6094,536.7813 295.8672,537.0391 Q296.125,537.2969 296.125,537.6406 Q296.125,537.9844 295.7813,538.3906 Q295.2813,538.9688 294.4844,539.2969 Q293.4063,539.75 292.1094,539.75 Q290.5938,539.75 289.3906,539.125 Q288.4063,538.625 287.7188,537.5547 Q287.0313,536.4844 287.0313,535.2031 L287.0313,534.0469 Q287.0313,532.7188 287.6484,531.5703 Q288.2656,530.4219 289.3594,529.8047 Q290.4531,529.1875 291.6875,529.1875 Q292.4219,529.1875 293.0703,529.3516 Q293.7188,529.5156 294.2656,529.875 Z "/><text fill="#000000" font-family="sans-serif" font-size="12" lengthAdjust="spacingAndGlyphs" textLength="63" x="305.5" y="538.9102">Resistance</text><line style="stroke: #808080; stroke-width: 1.5;" x1="277.5" x2="370.5" y1="550" y2="550"/><ellipse cx="287.5" cy="562.418" fill="none" rx="3" ry="3" style="stroke: #038048; stroke-width: 1.0;"/><text fill="#000000" font-family="sans-serif" font-size="11" lengthAdjust="spacingAndGlyphs" textLength="22" x="296.5" y="565.4189">elem</text><ellipse cx="287.5" cy="576.2539" fill="none" rx="3" ry="3" style="stroke: #038048; stroke-width: 1.0;"/><text fill="#000000" font-family="sans-serif" font-size="11" lengthAdjust="spacingAndGlyphs" textLength="30" x="296.5" y="579.2549">valeur</text><ellipse cx="287.5" cy="590.0898" fill="none" rx="3" ry="3" style="stroke: #038048; stroke-width: 1.0;"/><text fill="#000000" font-family="sans-serif" font-size="11" lengthAdjust="spacingAndGlyphs" textLength="32" x="296.5" y="593.0908">niveau</text><ellipse cx="287.5" cy="603.9258" fill="none" rx="3" ry="3" style="stroke: #038048; stroke-width: 1.0;"/><text fill="#000000" font-family="sans-serif" font-size="11" lengthAdjust="spacingAndGlyphs" textLength="30" x="296.5" y="606.9268">bonus</text><rect fill="none" height="6" style="stroke: #C82930; stroke-width: 1.0;" width="6" x="284.5" y="614.7617"/><text fill="#000000" font-family="sans-serif" font-size="11" lengthAdjust="spacingAndGlyphs" textLength="20" x="296.5" y="620.7627">total</text><rect fill="none" height="6" style="stroke: #C82930; stroke-width: 1.0;" width="6" x="284.5" y="628.5977"/><text fill="#000000" font-family="sans-serif" font-size="11" lengthAdjust="spacingAndGlyphs" textLength="29" x="296.5" y="634.5986">points</text><line style="stroke: #808080; stroke-width: 1.5;" x1="277.5" x2="370.5" y1="641.0156" y2="641.0156"/><!--class Jauge--><rect fill="#FFFFFF" filter="url(#f1qkl1tritgczb)" height="117.1797" id="Jauge" style="stroke: #808080; stroke-width: 1.5;" width="66" x="175" y="525"/><ellipse cx="190" cy="541" fill="#ADD1B2" rx="11" ry="11" style="stroke: #808080; stroke-width: 1.0;"/><path d="M192.7656,536.875 Q192.9219,536.6563 193.1094,536.5469 Q193.2969,536.4375 193.5156,536.4375 Q193.8906,536.4375 194.125,536.6953 Q194.3594,536.9531 194.3594,537.5625 L194.3594,539.0156 Q194.3594,539.625 194.125,539.8906 Q193.8906,540.1563 193.5156,540.1563 Q193.1719,540.1563 192.9688,539.9531 Q192.7656,539.7656 192.6563,539.25 Q192.6094,538.8906 192.4219,538.7031 Q192.0938,538.3281 191.4844,538.1094 Q190.875,537.8906 190.25,537.8906 Q189.4844,537.8906 188.8516,538.2188 Q188.2188,538.5469 187.7266,539.2969 Q187.2344,540.0469 187.2344,541.0781 L187.2344,542.1719 Q187.2344,543.4063 188.125,544.2266 Q189.0156,545.0469 190.6094,545.0469 Q191.5469,545.0469 192.2031,544.7969 Q192.5938,544.6406 193.0156,544.2031 Q193.2813,543.9375 193.4297,543.8594 Q193.5781,543.7813 193.7813,543.7813 Q194.1094,543.7813 194.3672,544.0391 Q194.625,544.2969 194.625,544.6406 Q194.625,544.9844 194.2813,545.3906 Q193.7813,545.9688 192.9844,546.2969 Q191.9063,546.75 190.6094,546.75 Q189.0938,546.75 187.8906,546.125 Q186.9063,545.625 186.2188,544.5547 Q185.5313,543.4844 185.5313,542.2031 L185.5313,541.0469 Q185.5313,539.7188 186.1484,538.5703 Q186.7656,537.4219 187.8594,536.8047 Q188.9531,536.1875 190.1875,536.1875 Q190.9219,536.1875 191.5703,536.3516 Q192.2188,536.5156 192.7656,536.875 Z "/><text fill="#000000" font-family="sans-serif" font-size="12" lengthAdjust="spacingAndGlyphs" textLength="34" x="204" y="545.9102">Jauge</text><line style="stroke: #808080; stroke-width: 1.5;" x1="176" x2="240" y1="557" y2="557"/><ellipse cx="186" cy="569.418" fill="none" rx="3" ry="3" style="stroke: #038048; stroke-width: 1.0;"/><text fill="#000000" font-family="sans-serif" font-size="11" lengthAdjust="spacingAndGlyphs" textLength="20" x="195" y="572.4189">nom</text><ellipse cx="186" cy="583.2539" fill="none" rx="3" ry="3" style="stroke: #038048; stroke-width: 1.0;"/><text fill="#000000" font-family="sans-serif" font-size="11" lengthAdjust="spacingAndGlyphs" textLength="30" x="195" y="586.2549">valeur</text><ellipse cx="186" cy="597.0898" fill="none" rx="3" ry="3" style="stroke: #038048; stroke-width: 1.0;"/><text fill="#000000" font-family="sans-serif" font-size="11" lengthAdjust="spacingAndGlyphs" textLength="30" x="195" y="600.0908">bonus</text><rect fill="none" height="6" style="stroke: #C82930; stroke-width: 1.0;" width="6" x="183" y="607.9258"/><text fill="#000000" font-family="sans-serif" font-size="11" lengthAdjust="spacingAndGlyphs" textLength="20" x="195" y="613.9268">total</text><rect fill="none" height="6" style="stroke: #C82930; stroke-width: 1.0;" width="6" x="183" y="621.7617"/><text fill="#000000" font-family="sans-serif" font-size="11" lengthAdjust="spacingAndGlyphs" textLength="29" x="195" y="627.7627">points</text><line style="stroke: #808080; stroke-width: 1.5;" x1="176" x2="240" y1="634.1797" y2="634.1797"/><!--class Langue--><rect fill="#FFFFFF" filter="url(#f1qkl1tritgczb)" height="75.6719" id="Langue" style="stroke: #808080; stroke-width: 1.5;" width="74" x="740" y="342.5"/><ellipse cx="755" cy="358.5" fill="#ADD1B2" rx="11" ry="11" style="stroke: #808080; stroke-width: 1.0;"/><path d="M757.7656,354.375 Q757.9219,354.1563 758.1094,354.0469 Q758.2969,353.9375 758.5156,353.9375 Q758.8906,353.9375 759.125,354.1953 Q759.3594,354.4531 759.3594,355.0625 L759.3594,356.5156 Q759.3594,357.125 759.125,357.3906 Q758.8906,357.6563 758.5156,357.6563 Q758.1719,357.6563 757.9688,357.4531 Q757.7656,357.2656 757.6563,356.75 Q757.6094,356.3906 757.4219,356.2031 Q757.0938,355.8281 756.4844,355.6094 Q755.875,355.3906 755.25,355.3906 Q754.4844,355.3906 753.8516,355.7188 Q753.2188,356.0469 752.7266,356.7969 Q752.2344,357.5469 752.2344,358.5781 L752.2344,359.6719 Q752.2344,360.9063 753.125,361.7266 Q754.0156,362.5469 755.6094,362.5469 Q756.5469,362.5469 757.2031,362.2969 Q757.5938,362.1406 758.0156,361.7031 Q758.2813,361.4375 758.4297,361.3594 Q758.5781,361.2813 758.7813,361.2813 Q759.1094,361.2813 759.3672,361.5391 Q759.625,361.7969 759.625,362.1406 Q759.625,362.4844 759.2813,362.8906 Q758.7813,363.4688 757.9844,363.7969 Q756.9063,364.25 755.6094,364.25 Q754.0938,364.25 752.8906,363.625 Q751.9063,363.125 751.2188,362.0547 Q750.5313,360.9844 750.5313,359.7031 L750.5313,358.5469 Q750.5313,357.2188 751.1484,356.0703 Q751.7656,354.9219 752.8594,354.3047 Q753.9531,353.6875 755.1875,353.6875 Q755.9219,353.6875 756.5703,353.8516 Q757.2188,354.0156 757.7656,354.375 Z "/><text fill="#000000" font-family="sans-serif" font-size="12" lengthAdjust="spacingAndGlyphs" textLength="42" x="769" y="363.4102">Langue</text><line style="stroke: #808080; stroke-width: 1.5;" x1="741" x2="813" y1="374.5" y2="374.5"/><ellipse cx="751" cy="386.918" fill="none" rx="3" ry="3" style="stroke: #038048; stroke-width: 1.0;"/><text fill="#000000" font-family="sans-serif" font-size="11" lengthAdjust="spacingAndGlyphs" textLength="20" x="760" y="389.9189">nom</text><ellipse cx="751" cy="400.7539" fill="none" rx="3" ry="3" style="stroke: #038048; stroke-width: 1.0;"/><text fill="#000000" font-family="sans-serif" font-size="11" lengthAdjust="spacingAndGlyphs" textLength="29" x="760" y="403.7549">points</text><line style="stroke: #808080; stroke-width: 1.5;" x1="741" x2="813" y1="410.1719" y2="410.1719"/><!--class Competence--><rect fill="#FFFFFF" filter="url(#f1qkl1tritgczb)" height="103.3438" id="Competence" style="stroke: #808080; stroke-width: 1.5;" width="103" x="601.5" y="329"/><ellipse cx="616.5" cy="345" fill="#ADD1B2" rx="11" ry="11" style="stroke: #808080; stroke-width: 1.0;"/><path d="M619.2656,340.875 Q619.4219,340.6563 619.6094,340.5469 Q619.7969,340.4375 620.0156,340.4375 Q620.3906,340.4375 620.625,340.6953 Q620.8594,340.9531 620.8594,341.5625 L620.8594,343.0156 Q620.8594,343.625 620.625,343.8906 Q620.3906,344.1563 620.0156,344.1563 Q619.6719,344.1563 619.4688,343.9531 Q619.2656,343.7656 619.1563,343.25 Q619.1094,342.8906 618.9219,342.7031 Q618.5938,342.3281 617.9844,342.1094 Q617.375,341.8906 616.75,341.8906 Q615.9844,341.8906 615.3516,342.2188 Q614.7188,342.5469 614.2266,343.2969 Q613.7344,344.0469 613.7344,345.0781 L613.7344,346.1719 Q613.7344,347.4063 614.625,348.2266 Q615.5156,349.0469 617.1094,349.0469 Q618.0469,349.0469 618.7031,348.7969 Q619.0938,348.6406 619.5156,348.2031 Q619.7813,347.9375 619.9297,347.8594 Q620.0781,347.7813 620.2813,347.7813 Q620.6094,347.7813 620.8672,348.0391 Q621.125,348.2969 621.125,348.6406 Q621.125,348.9844 620.7813,349.3906 Q620.2813,349.9688 619.4844,350.2969 Q618.4063,350.75 617.1094,350.75 Q615.5938,350.75 614.3906,350.125 Q613.4063,349.625 612.7188,348.5547 Q612.0313,347.4844 612.0313,346.2031 L612.0313,345.0469 Q612.0313,343.7188 612.6484,342.5703 Q613.2656,341.4219 614.3594,340.8047 Q615.4531,340.1875 616.6875,340.1875 Q617.4219,340.1875 618.0703,340.3516 Q618.7188,340.5156 619.2656,340.875 Z "/><text fill="#000000" font-family="sans-serif" font-size="12" lengthAdjust="spacingAndGlyphs" textLength="71" x="630.5" y="349.9102">Competence</text><line style="stroke: #808080; stroke-width: 1.5;" x1="602.5" x2="703.5" y1="361" y2="361"/><ellipse cx="612.5" cy="373.418" fill="none" rx="3" ry="3" style="stroke: #038048; stroke-width: 1.0;"/><text fill="#000000" font-family="sans-serif" font-size="11" lengthAdjust="spacingAndGlyphs" textLength="32" x="621.5" y="376.4189">bPalier</text><rect fill="none" height="6" style="stroke: #C82930; stroke-width: 1.0;" width="6" x="609.5" y="384.2539"/><text fill="#000000" font-family="sans-serif" font-size="11" lengthAdjust="spacingAndGlyphs" textLength="20" x="621.5" y="390.2549">mod</text><rect fill="none" height="6" style="stroke: #C82930; stroke-width: 1.0;" width="6" x="609.5" y="398.0898"/><text fill="#000000" font-family="sans-serif" font-size="11" lengthAdjust="spacingAndGlyphs" textLength="20" x="621.5" y="404.0908">total</text><line style="stroke: #808080; stroke-width: 1.5;" x1="602.5" x2="703.5" y1="410.5078" y2="410.5078"/><rect fill="#F24D5C" height="6" style="stroke: #C82930; stroke-width: 1.0;" width="6" x="609.5" y="419.9258"/><text fill="#000000" font-family="sans-serif" font-size="11" lengthAdjust="spacingAndGlyphs" textLength="57" x="621.5" y="425.9268">calcPoints()</text><!--class Stances--><rect fill="#FFFFFF" filter="url(#f1qkl1tritgczb)" height="103.3438" id="Stances" style="stroke: #808080; stroke-width: 1.5;" width="83" x="483.5" y="329"/><ellipse cx="501.2" cy="345" fill="#ADD1B2" rx="11" ry="11" style="stroke: #808080; stroke-width: 1.0;"/><path d="M503.9656,340.875 Q504.1219,340.6563 504.3094,340.5469 Q504.4969,340.4375 504.7156,340.4375 Q505.0906,340.4375 505.325,340.6953 Q505.5594,340.9531 505.5594,341.5625 L505.5594,343.0156 Q505.5594,343.625 505.325,343.8906 Q505.0906,344.1563 504.7156,344.1563 Q504.3719,344.1563 504.1688,343.9531 Q503.9656,343.7656 503.8563,343.25 Q503.8094,342.8906 503.6219,342.7031 Q503.2938,342.3281 502.6844,342.1094 Q502.075,341.8906 501.45,341.8906 Q500.6844,341.8906 500.0516,342.2188 Q499.4188,342.5469 498.9266,343.2969 Q498.4344,344.0469 498.4344,345.0781 L498.4344,346.1719 Q498.4344,347.4063 499.325,348.2266 Q500.2156,349.0469 501.8094,349.0469 Q502.7469,349.0469 503.4031,348.7969 Q503.7938,348.6406 504.2156,348.2031 Q504.4813,347.9375 504.6297,347.8594 Q504.7781,347.7813 504.9813,347.7813 Q505.3094,347.7813 505.5672,348.0391 Q505.825,348.2969 505.825,348.6406 Q505.825,348.9844 505.4813,349.3906 Q504.9813,349.9688 504.1844,350.2969 Q503.1063,350.75 501.8094,350.75 Q500.2938,350.75 499.0906,350.125 Q498.1063,349.625 497.4188,348.5547 Q496.7313,347.4844 496.7313,346.2031 L496.7313,345.0469 Q496.7313,343.7188 497.3484,342.5703 Q497.9656,341.4219 499.0594,340.8047 Q500.1531,340.1875 501.3875,340.1875 Q502.1219,340.1875 502.7703,340.3516 Q503.4188,340.5156 503.9656,340.875 Z "/><text fill="#000000" font-family="sans-serif" font-size="12" lengthAdjust="spacingAndGlyphs" textLength="45" x="515.8" y="349.9102">Stances</text><line style="stroke: #808080; stroke-width: 1.5;" x1="484.5" x2="565.5" y1="361" y2="361"/><ellipse cx="494.5" cy="373.418" fill="none" rx="3" ry="3" style="stroke: #038048; stroke-width: 1.0;"/><text fill="#000000" font-family="sans-serif" font-size="11" lengthAdjust="spacingAndGlyphs" textLength="36" x="503.5" y="376.4189">modAtk</text><ellipse cx="494.5" cy="387.2539" fill="none" rx="3" ry="3" style="stroke: #038048; stroke-width: 1.0;"/><text fill="#000000" font-family="sans-serif" font-size="11" lengthAdjust="spacingAndGlyphs" textLength="15" x="503.5" y="390.2549">crit</text><ellipse cx="494.5" cy="401.0898" fill="none" rx="3" ry="3" style="stroke: #038048; stroke-width: 1.0;"/><text fill="#000000" font-family="sans-serif" font-size="11" lengthAdjust="spacingAndGlyphs" textLength="36" x="503.5" y="404.0908">modCrit</text><line style="stroke: #808080; stroke-width: 1.5;" x1="484.5" x2="565.5" y1="410.5078" y2="410.5078"/><rect fill="#F24D5C" height="6" style="stroke: #C82930; stroke-width: 1.0;" width="6" x="491.5" y="419.9258"/><text fill="#000000" font-family="sans-serif" font-size="11" lengthAdjust="spacingAndGlyphs" textLength="57" x="503.5" y="425.9268">calcPoints()</text><!--class Metier--><rect fill="#FFFFFF" filter="url(#f1qkl1tritgczb)" height="61.8359" id="Metier" style="stroke: #808080; stroke-width: 1.5;" width="83" x="967.5" y="349.5"/><ellipse cx="990.6" cy="365.5" fill="#ADD1B2" rx="11" ry="11" style="stroke: #808080; stroke-width: 1.0;"/><path d="M993.3656,361.375 Q993.5219,361.1563 993.7094,361.0469 Q993.8969,360.9375 994.1156,360.9375 Q994.4906,360.9375 994.725,361.1953 Q994.9594,361.4531 994.9594,362.0625 L994.9594,363.5156 Q994.9594,364.125 994.725,364.3906 Q994.4906,364.6563 994.1156,364.6563 Q993.7719,364.6563 993.5688,364.4531 Q993.3656,364.2656 993.2563,363.75 Q993.2094,363.3906 993.0219,363.2031 Q992.6938,362.8281 992.0844,362.6094 Q991.475,362.3906 990.85,362.3906 Q990.0844,362.3906 989.4516,362.7188 Q988.8188,363.0469 988.3266,363.7969 Q987.8344,364.5469 987.8344,365.5781 L987.8344,366.6719 Q987.8344,367.9063 988.725,368.7266 Q989.6156,369.5469 991.2094,369.5469 Q992.1469,369.5469 992.8031,369.2969 Q993.1938,369.1406 993.6156,368.7031 Q993.8813,368.4375 994.0297,368.3594 Q994.1781,368.2813 994.3813,368.2813 Q994.7094,368.2813 994.9672,368.5391 Q995.225,368.7969 995.225,369.1406 Q995.225,369.4844 994.8813,369.8906 Q994.3813,370.4688 993.5844,370.7969 Q992.5063,371.25 991.2094,371.25 Q989.6938,371.25 988.4906,370.625 Q987.5063,370.125 986.8188,369.0547 Q986.1313,367.9844 986.1313,366.7031 L986.1313,365.5469 Q986.1313,364.2188 986.7484,363.0703 Q987.3656,361.9219 988.4594,361.3047 Q989.5531,360.6875 990.7875,360.6875 Q991.5219,360.6875 992.1703,360.8516 Q992.8188,361.0156 993.3656,361.375 Z "/><text fill="#000000" font-family="sans-serif" font-size="12" lengthAdjust="spacingAndGlyphs" textLength="33" x="1006.4" y="370.4102">Metier</text><line style="stroke: #808080; stroke-width: 1.5;" x1="968.5" x2="1049.5" y1="381.5" y2="381.5"/><line style="stroke: #808080; stroke-width: 1.5;" x1="968.5" x2="1049.5" y1="389.5" y2="389.5"/><rect fill="#F24D5C" height="6" style="stroke: #C82930; stroke-width: 1.0;" width="6" x="975.5" y="398.918"/><text fill="#000000" font-family="sans-serif" font-size="11" lengthAdjust="spacingAndGlyphs" textLength="57" x="987.5" y="404.9189">calcPoints()</text><!--class Magie--><rect fill="#FFFFFF" filter="url(#f1qkl1tritgczb)" height="75.6719" id="Magie" style="stroke: #808080; stroke-width: 1.5;" width="83" x="849.5" y="342.5"/><ellipse cx="872.6" cy="358.5" fill="#ADD1B2" rx="11" ry="11" style="stroke: #808080; stroke-width: 1.0;"/><path d="M875.3656,354.375 Q875.5219,354.1563 875.7094,354.0469 Q875.8969,353.9375 876.1156,353.9375 Q876.4906,353.9375 876.725,354.1953 Q876.9594,354.4531 876.9594,355.0625 L876.9594,356.5156 Q876.9594,357.125 876.725,357.3906 Q876.4906,357.6563 876.1156,357.6563 Q875.7719,357.6563 875.5688,357.4531 Q875.3656,357.2656 875.2563,356.75 Q875.2094,356.3906 875.0219,356.2031 Q874.6938,355.8281 874.0844,355.6094 Q873.475,355.3906 872.85,355.3906 Q872.0844,355.3906 871.4516,355.7188 Q870.8188,356.0469 870.3266,356.7969 Q869.8344,357.5469 869.8344,358.5781 L869.8344,359.6719 Q869.8344,360.9063 870.725,361.7266 Q871.6156,362.5469 873.2094,362.5469 Q874.1469,362.5469 874.8031,362.2969 Q875.1938,362.1406 875.6156,361.7031 Q875.8813,361.4375 876.0297,361.3594 Q876.1781,361.2813 876.3813,361.2813 Q876.7094,361.2813 876.9672,361.5391 Q877.225,361.7969 877.225,362.1406 Q877.225,362.4844 876.8813,362.8906 Q876.3813,363.4688 875.5844,363.7969 Q874.5063,364.25 873.2094,364.25 Q871.6938,364.25 870.4906,363.625 Q869.5063,363.125 868.8188,362.0547 Q868.1313,360.9844 868.1313,359.7031 L868.1313,358.5469 Q868.1313,357.2188 868.7484,356.0703 Q869.3656,354.9219 870.4594,354.3047 Q871.5531,353.6875 872.7875,353.6875 Q873.5219,353.6875 874.1703,353.8516 Q874.8188,354.0156 875.3656,354.375 Z "/><text fill="#000000" font-family="sans-serif" font-size="12" lengthAdjust="spacingAndGlyphs" textLength="33" x="888.4" y="363.4102">Magie</text><line style="stroke: #808080; stroke-width: 1.5;" x1="850.5" x2="931.5" y1="374.5" y2="374.5"/><ellipse cx="860.5" cy="386.918" fill="none" rx="3" ry="3" style="stroke: #038048; stroke-width: 1.0;"/><text fill="#000000" font-family="sans-serif" font-size="11" lengthAdjust="spacingAndGlyphs" textLength="22" x="869.5" y="389.9189">elem</text><line style="stroke: #808080; stroke-width: 1.5;" x1="850.5" x2="931.5" y1="396.3359" y2="396.3359"/><rect fill="#F24D5C" height="6" style="stroke: #C82930; stroke-width: 1.0;" width="6" x="857.5" y="405.7539"/><text fill="#000000" font-family="sans-serif" font-size="11" lengthAdjust="spacingAndGlyphs" textLength="57" x="869.5" y="411.7549">calcPoints()</text><!--class Humain--><rect fill="#FFFFFF" filter="url(#f1qkl1tritgczb)" height="89.5078" id="Humain" style="stroke: #808080; stroke-width: 1.5;" width="76" x="66" y="8"/><ellipse cx="81" cy="24" fill="#A9DCDF" rx="11" ry="11" style="stroke: #808080; stroke-width: 1.0;"/><path d="M83.1875,25.7656 L79.0469,25.7656 L78.625,26.7969 L79.0469,26.7969 Q79.6563,26.7969 79.9219,27.0313 Q80.1875,27.2656 80.1875,27.6563 Q80.1875,28.0313 79.9219,28.2656 Q79.6563,28.5 79.0469,28.5 L76.75,28.5 Q76.1406,28.5 75.8828,28.2656 Q75.625,28.0313 75.625,27.6406 Q75.625,27.2656 75.8984,27.0234 Q76.1719,26.7813 76.7969,26.7969 L79.4688,20.1406 L78.3594,20.1406 Q77.75,20.1406 77.4844,19.9063 Q77.2188,19.6719 77.2188,19.2813 Q77.2188,18.9063 77.4844,18.6719 Q77.75,18.4375 78.3594,18.4375 L82.0313,18.4375 L85.4219,26.7969 Q86.0156,26.7969 86.2031,26.9375 Q86.5938,27.2031 86.5938,27.6563 Q86.5938,28.0313 86.3359,28.2656 Q86.0781,28.5 85.4688,28.5 L83.1719,28.5 Q82.5625,28.5 82.2969,28.2656 Q82.0313,28.0313 82.0313,27.6406 Q82.0313,27.2656 82.2969,27.0313 Q82.5625,26.7969 83.1719,26.7969 L83.5938,26.7969 L83.1875,25.7656 Z M82.4688,24.0625 L81.1094,20.6875 L79.7344,24.0625 L82.4688,24.0625 Z "/><text fill="#000000" font-family="sans-serif" font-size="12" font-style="italic" lengthAdjust="spacingAndGlyphs" textLength="44" x="95" y="28.9102">Humain</text><line style="stroke: #808080; stroke-width: 1.5;" x1="67" x2="141" y1="40" y2="40"/><ellipse cx="77" cy="52.418" fill="none" rx="3" ry="3" style="stroke: #038048; stroke-width: 1.0;"/><text fill="#000000" font-family="sans-serif" font-size="11" lengthAdjust="spacingAndGlyphs" textLength="20" x="86" y="55.4189">nom</text><ellipse cx="77" cy="66.2539" fill="none" rx="3" ry="3" style="stroke: #038048; stroke-width: 1.0;"/><text fill="#000000" font-family="sans-serif" font-size="11" lengthAdjust="spacingAndGlyphs" textLength="36" x="86" y="69.2549">prenom</text><ellipse cx="77" cy="80.0898" fill="none" rx="3" ry="3" style="stroke: #038048; stroke-width: 1.0;"/><text fill="#000000" font-family="sans-serif" font-size="11" lengthAdjust="spacingAndGlyphs" textLength="8" x="86" y="83.0908">id</text><line style="stroke: #808080; stroke-width: 1.5;" x1="67" x2="141" y1="89.5078" y2="89.5078"/><!--class MaitreDuJeu--><rect fill="#FFFFFF" filter="url(#f1qkl1tritgczb)" height="48" id="MaitreDuJeu" style="stroke: #808080; stroke-width: 1.5;" width="101" x="53.5" y="185.5"/><ellipse cx="68.5" cy="201.5" fill="#ADD1B2" rx="11" ry="11" style="stroke: #808080; stroke-width: 1.0;"/><path d="M71.2656,197.375 Q71.4219,197.1563 71.6094,197.0469 Q71.7969,196.9375 72.0156,196.9375 Q72.3906,196.9375 72.625,197.1953 Q72.8594,197.4531 72.8594,198.0625 L72.8594,199.5156 Q72.8594,200.125 72.625,200.3906 Q72.3906,200.6563 72.0156,200.6563 Q71.6719,200.6563 71.4688,200.4531 Q71.2656,200.2656 71.1563,199.75 Q71.1094,199.3906 70.9219,199.2031 Q70.5938,198.8281 69.9844,198.6094 Q69.375,198.3906 68.75,198.3906 Q67.9844,198.3906 67.3516,198.7188 Q66.7188,199.0469 66.2266,199.7969 Q65.7344,200.5469 65.7344,201.5781 L65.7344,202.6719 Q65.7344,203.9063 66.625,204.7266 Q67.5156,205.5469 69.1094,205.5469 Q70.0469,205.5469 70.7031,205.2969 Q71.0938,205.1406 71.5156,204.7031 Q71.7813,204.4375 71.9297,204.3594 Q72.0781,204.2813 72.2813,204.2813 Q72.6094,204.2813 72.8672,204.5391 Q73.125,204.7969 73.125,205.1406 Q73.125,205.4844 72.7813,205.8906 Q72.2813,206.4688 71.4844,206.7969 Q70.4063,207.25 69.1094,207.25 Q67.5938,207.25 66.3906,206.625 Q65.4063,206.125 64.7188,205.0547 Q64.0313,203.9844 64.0313,202.7031 L64.0313,201.5469 Q64.0313,200.2188 64.6484,199.0703 Q65.2656,197.9219 66.3594,197.3047 Q67.4531,196.6875 68.6875,196.6875 Q69.4219,196.6875 70.0703,196.8516 Q70.7188,197.0156 71.2656,197.375 Z "/><text fill="#000000" font-family="sans-serif" font-size="12" lengthAdjust="spacingAndGlyphs" textLength="69" x="82.5" y="206.4102">MaitreDuJeu</text><line style="stroke: #808080; stroke-width: 1.5;" x1="54.5" x2="153.5" y1="217.5" y2="217.5"/><line style="stroke: #808080; stroke-width: 1.5;" x1="54.5" x2="153.5" y1="225.5" y2="225.5"/><!--class Joueur--><rect fill="#FFFFFF" filter="url(#f1qkl1tritgczb)" height="48" id="Joueur" style="stroke: #808080; stroke-width: 1.5;" width="70" x="6" y="559.5"/><ellipse cx="21" cy="575.5" fill="#ADD1B2" rx="11" ry="11" style="stroke: #808080; stroke-width: 1.0;"/><path d="M23.7656,571.375 Q23.9219,571.1563 24.1094,571.0469 Q24.2969,570.9375 24.5156,570.9375 Q24.8906,570.9375 25.125,571.1953 Q25.3594,571.4531 25.3594,572.0625 L25.3594,573.5156 Q25.3594,574.125 25.125,574.3906 Q24.8906,574.6563 24.5156,574.6563 Q24.1719,574.6563 23.9688,574.4531 Q23.7656,574.2656 23.6563,573.75 Q23.6094,573.3906 23.4219,573.2031 Q23.0938,572.8281 22.4844,572.6094 Q21.875,572.3906 21.25,572.3906 Q20.4844,572.3906 19.8516,572.7188 Q19.2188,573.0469 18.7266,573.7969 Q18.2344,574.5469 18.2344,575.5781 L18.2344,576.6719 Q18.2344,577.9063 19.125,578.7266 Q20.0156,579.5469 21.6094,579.5469 Q22.5469,579.5469 23.2031,579.2969 Q23.5938,579.1406 24.0156,578.7031 Q24.2813,578.4375 24.4297,578.3594 Q24.5781,578.2813 24.7813,578.2813 Q25.1094,578.2813 25.3672,578.5391 Q25.625,578.7969 25.625,579.1406 Q25.625,579.4844 25.2813,579.8906 Q24.7813,580.4688 23.9844,580.7969 Q22.9063,581.25 21.6094,581.25 Q20.0938,581.25 18.8906,580.625 Q17.9063,580.125 17.2188,579.0547 Q16.5313,577.9844 16.5313,576.7031 L16.5313,575.5469 Q16.5313,574.2188 17.1484,573.0703 Q17.7656,571.9219 18.8594,571.3047 Q19.9531,570.6875 21.1875,570.6875 Q21.9219,570.6875 22.5703,570.8516 Q23.2188,571.0156 23.7656,571.375 Z "/><text fill="#000000" font-family="sans-serif" font-size="12" lengthAdjust="spacingAndGlyphs" textLength="38" x="35" y="580.4102">Joueur</text><line style="stroke: #808080; stroke-width: 1.5;" x1="7" x2="75" y1="591.5" y2="591.5"/><line style="stroke: #808080; stroke-width: 1.5;" x1="7" x2="75" y1="599.5" y2="599.5"/><!--class Cast--><rect fill="#FFFFFF" filter="url(#f1qkl1tritgczb)" height="61.8359" id="Cast" style="stroke: #808080; stroke-width: 1.5;" width="58" x="53" y="349.5"/><ellipse cx="68" cy="365.5" fill="#ADD1B2" rx="11" ry="11" style="stroke: #808080; stroke-width: 1.0;"/><path d="M70.7656,361.375 Q70.9219,361.1563 71.1094,361.0469 Q71.2969,360.9375 71.5156,360.9375 Q71.8906,360.9375 72.125,361.1953 Q72.3594,361.4531 72.3594,362.0625 L72.3594,363.5156 Q72.3594,364.125 72.125,364.3906 Q71.8906,364.6563 71.5156,364.6563 Q71.1719,364.6563 70.9688,364.4531 Q70.7656,364.2656 70.6563,363.75 Q70.6094,363.3906 70.4219,363.2031 Q70.0938,362.8281 69.4844,362.6094 Q68.875,362.3906 68.25,362.3906 Q67.4844,362.3906 66.8516,362.7188 Q66.2188,363.0469 65.7266,363.7969 Q65.2344,364.5469 65.2344,365.5781 L65.2344,366.6719 Q65.2344,367.9063 66.125,368.7266 Q67.0156,369.5469 68.6094,369.5469 Q69.5469,369.5469 70.2031,369.2969 Q70.5938,369.1406 71.0156,368.7031 Q71.2813,368.4375 71.4297,368.3594 Q71.5781,368.2813 71.7813,368.2813 Q72.1094,368.2813 72.3672,368.5391 Q72.625,368.7969 72.625,369.1406 Q72.625,369.4844 72.2813,369.8906 Q71.7813,370.4688 70.9844,370.7969 Q69.9063,371.25 68.6094,371.25 Q67.0938,371.25 65.8906,370.625 Q64.9063,370.125 64.2188,369.0547 Q63.5313,367.9844 63.5313,366.7031 L63.5313,365.5469 Q63.5313,364.2188 64.1484,363.0703 Q64.7656,361.9219 65.8594,361.3047 Q66.9531,360.6875 68.1875,360.6875 Q68.9219,360.6875 69.5703,360.8516 Q70.2188,361.0156 70.7656,361.375 Z "/><text fill="#000000" font-family="sans-serif" font-size="12" lengthAdjust="spacingAndGlyphs" textLength="26" x="82" y="370.4102">Cast</text><line style="stroke: #808080; stroke-width: 1.5;" x1="54" x2="110" y1="381.5" y2="381.5"/><ellipse cx="64" cy="393.918" fill="none" rx="3" ry="3" style="stroke: #038048; stroke-width: 1.0;"/><text fill="#000000" font-family="sans-serif" font-size="11" lengthAdjust="spacingAndGlyphs" textLength="20" x="73" y="396.9189">nom</text><line style="stroke: #808080; stroke-width: 1.5;" x1="54" x2="110" y1="403.3359" y2="403.3359"/><!--class Personnage--><rect fill="#FFFFFF" filter="url(#f1qkl1tritgczb)" height="89.5078" id="Personnage" style="stroke: #808080; stroke-width: 1.5;" width="100" x="421" y="164.5"/><ellipse cx="436" cy="180.5" fill="#ADD1B2" rx="11" ry="11" style="stroke: #808080; stroke-width: 1.0;"/><path d="M438.7656,176.375 Q438.9219,176.1563 439.1094,176.0469 Q439.2969,175.9375 439.5156,175.9375 Q439.8906,175.9375 440.125,176.1953 Q440.3594,176.4531 440.3594,177.0625 L440.3594,178.5156 Q440.3594,179.125 440.125,179.3906 Q439.8906,179.6563 439.5156,179.6563 Q439.1719,179.6563 438.9688,179.4531 Q438.7656,179.2656 438.6563,178.75 Q438.6094,178.3906 438.4219,178.2031 Q438.0938,177.8281 437.4844,177.6094 Q436.875,177.3906 436.25,177.3906 Q435.4844,177.3906 434.8516,177.7188 Q434.2188,178.0469 433.7266,178.7969 Q433.2344,179.5469 433.2344,180.5781 L433.2344,181.6719 Q433.2344,182.9063 434.125,183.7266 Q435.0156,184.5469 436.6094,184.5469 Q437.5469,184.5469 438.2031,184.2969 Q438.5938,184.1406 439.0156,183.7031 Q439.2813,183.4375 439.4297,183.3594 Q439.5781,183.2813 439.7813,183.2813 Q440.1094,183.2813 440.3672,183.5391 Q440.625,183.7969 440.625,184.1406 Q440.625,184.4844 440.2813,184.8906 Q439.7813,185.4688 438.9844,185.7969 Q437.9063,186.25 436.6094,186.25 Q435.0938,186.25 433.8906,185.625 Q432.9063,185.125 432.2188,184.0547 Q431.5313,182.9844 431.5313,181.7031 L431.5313,180.5469 Q431.5313,179.2188 432.1484,178.0703 Q432.7656,176.9219 433.8594,176.3047 Q434.9531,175.6875 436.1875,175.6875 Q436.9219,175.6875 437.5703,175.8516 Q438.2188,176.0156 438.7656,176.375 Z "/><text fill="#000000" font-family="sans-serif" font-size="12" lengthAdjust="spacingAndGlyphs" textLength="68" x="450" y="185.4102">Personnage</text><line style="stroke: #808080; stroke-width: 1.5;" x1="422" x2="520" y1="196.5" y2="196.5"/><ellipse cx="432" cy="208.918" fill="none" rx="3" ry="3" style="stroke: #038048; stroke-width: 1.0;"/><text fill="#000000" font-family="sans-serif" font-size="11" lengthAdjust="spacingAndGlyphs" textLength="20" x="441" y="211.9189">nom</text><ellipse cx="432" cy="222.7539" fill="none" rx="3" ry="3" style="stroke: #038048; stroke-width: 1.0;"/><text fill="#000000" font-family="sans-serif" font-size="11" lengthAdjust="spacingAndGlyphs" textLength="21" x="441" y="225.7549">taille</text><rect fill="none" height="6" style="stroke: #C82930; stroke-width: 1.0;" width="6" x="429" y="233.5898"/><text fill="#000000" font-family="sans-serif" font-size="11" lengthAdjust="spacingAndGlyphs" textLength="20" x="441" y="239.5908">mod</text><line style="stroke: #808080; stroke-width: 1.5;" x1="422" x2="520" y1="246.0078" y2="246.0078"/><!--class Race--><rect fill="#FFFFFF" filter="url(#f1qkl1tritgczb)" height="89.5078" id="Race" style="stroke: #808080; stroke-width: 1.5;" width="76" x="217" y="335.5"/><ellipse cx="238.75" cy="351.5" fill="#ADD1B2" rx="11" ry="11" style="stroke: #808080; stroke-width: 1.0;"/><path d="M241.5156,347.375 Q241.6719,347.1563 241.8594,347.0469 Q242.0469,346.9375 242.2656,346.9375 Q242.6406,346.9375 242.875,347.1953 Q243.1094,347.4531 243.1094,348.0625 L243.1094,349.5156 Q243.1094,350.125 242.875,350.3906 Q242.6406,350.6563 242.2656,350.6563 Q241.9219,350.6563 241.7188,350.4531 Q241.5156,350.2656 241.4063,349.75 Q241.3594,349.3906 241.1719,349.2031 Q240.8438,348.8281 240.2344,348.6094 Q239.625,348.3906 239,348.3906 Q238.2344,348.3906 237.6016,348.7188 Q236.9688,349.0469 236.4766,349.7969 Q235.9844,350.5469 235.9844,351.5781 L235.9844,352.6719 Q235.9844,353.9063 236.875,354.7266 Q237.7656,355.5469 239.3594,355.5469 Q240.2969,355.5469 240.9531,355.2969 Q241.3438,355.1406 241.7656,354.7031 Q242.0313,354.4375 242.1797,354.3594 Q242.3281,354.2813 242.5313,354.2813 Q242.8594,354.2813 243.1172,354.5391 Q243.375,354.7969 243.375,355.1406 Q243.375,355.4844 243.0313,355.8906 Q242.5313,356.4688 241.7344,356.7969 Q240.6563,357.25 239.3594,357.25 Q237.8438,357.25 236.6406,356.625 Q235.6563,356.125 234.9688,355.0547 Q234.2813,353.9844 234.2813,352.7031 L234.2813,351.5469 Q234.2813,350.2188 234.8984,349.0703 Q235.5156,347.9219 236.6094,347.3047 Q237.7031,346.6875 238.9375,346.6875 Q239.6719,346.6875 240.3203,346.8516 Q240.9688,347.0156 241.5156,347.375 Z "/><text fill="#000000" font-family="sans-serif" font-size="12" lengthAdjust="spacingAndGlyphs" textLength="29" x="254.25" y="356.4102">Race</text><line style="stroke: #808080; stroke-width: 1.5;" x1="218" x2="292" y1="367.5" y2="367.5"/><ellipse cx="228" cy="379.918" fill="none" rx="3" ry="3" style="stroke: #038048; stroke-width: 1.0;"/><text fill="#000000" font-family="sans-serif" font-size="11" lengthAdjust="spacingAndGlyphs" textLength="20" x="237" y="382.9189">nom</text><ellipse cx="228" cy="393.7539" fill="none" rx="3" ry="3" style="stroke: #038048; stroke-width: 1.0;"/><text fill="#000000" font-family="sans-serif" font-size="11" lengthAdjust="spacingAndGlyphs" textLength="35" x="237" y="396.7549">rBonus</text><ellipse cx="228" cy="407.5898" fill="none" rx="3" ry="3" style="stroke: #038048; stroke-width: 1.0;"/><text fill="#000000" font-family="sans-serif" font-size="11" lengthAdjust="spacingAndGlyphs" textLength="50" x="237" y="410.5908">uniqueSkill</text><line style="stroke: #808080; stroke-width: 1.5;" x1="218" x2="292" y1="417.0078" y2="417.0078"/><!--class Connaissances--><rect fill="#FFFFFF" filter="url(#f1qkl1tritgczb)" height="103.3438" id="Connaissances" style="stroke: #808080; stroke-width: 1.5;" width="117" x="1027.5" y="158"/><ellipse cx="1042.5" cy="174" fill="#A9DCDF" rx="11" ry="11" style="stroke: #808080; stroke-width: 1.0;"/><path d="M1044.6875,175.7656 L1040.5469,175.7656 L1040.125,176.7969 L1040.5469,176.7969 Q1041.1563,176.7969 1041.4219,177.0313 Q1041.6875,177.2656 1041.6875,177.6563 Q1041.6875,178.0313 1041.4219,178.2656 Q1041.1563,178.5 1040.5469,178.5 L1038.25,178.5 Q1037.6406,178.5 1037.3828,178.2656 Q1037.125,178.0313 1037.125,177.6406 Q1037.125,177.2656 1037.3984,177.0234 Q1037.6719,176.7813 1038.2969,176.7969 L1040.9688,170.1406 L1039.8594,170.1406 Q1039.25,170.1406 1038.9844,169.9063 Q1038.7188,169.6719 1038.7188,169.2813 Q1038.7188,168.9063 1038.9844,168.6719 Q1039.25,168.4375 1039.8594,168.4375 L1043.5313,168.4375 L1046.9219,176.7969 Q1047.5156,176.7969 1047.7031,176.9375 Q1048.0938,177.2031 1048.0938,177.6563 Q1048.0938,178.0313 1047.8359,178.2656 Q1047.5781,178.5 1046.9688,178.5 L1044.6719,178.5 Q1044.0625,178.5 1043.7969,178.2656 Q1043.5313,178.0313 1043.5313,177.6406 Q1043.5313,177.2656 1043.7969,177.0313 Q1044.0625,176.7969 1044.6719,176.7969 L1045.0938,176.7969 L1044.6875,175.7656 Z M1043.9688,174.0625 L1042.6094,170.6875 L1041.2344,174.0625 L1043.9688,174.0625 Z "/><text fill="#000000" font-family="sans-serif" font-size="12" font-style="italic" lengthAdjust="spacingAndGlyphs" textLength="85" x="1056.5" y="178.9102">Connaissances</text><line style="stroke: #808080; stroke-width: 1.5;" x1="1028.5" x2="1143.5" y1="190" y2="190"/><ellipse cx="1038.5" cy="202.418" fill="none" rx="3" ry="3" style="stroke: #038048; stroke-width: 1.0;"/><text fill="#000000" font-family="sans-serif" font-size="11" lengthAdjust="spacingAndGlyphs" textLength="20" x="1047.5" y="205.4189">nom</text><ellipse cx="1038.5" cy="216.2539" fill="none" rx="3" ry="3" style="stroke: #038048; stroke-width: 1.0;"/><text fill="#000000" font-family="sans-serif" font-size="11" lengthAdjust="spacingAndGlyphs" textLength="32" x="1047.5" y="219.2549">niveau</text><ellipse cx="1038.5" cy="230.0898" fill="none" rx="3" ry="3" style="stroke: #038048; stroke-width: 1.0;"/><text fill="#000000" font-family="sans-serif" font-size="11" lengthAdjust="spacingAndGlyphs" textLength="53" x="1047.5" y="233.0908">description</text><rect fill="none" height="6" style="stroke: #C82930; stroke-width: 1.0;" width="6" x="1035.5" y="240.9258"/><text fill="#000000" font-family="sans-serif" font-size="11" lengthAdjust="spacingAndGlyphs" textLength="29" x="1047.5" y="246.9268">points</text><line style="stroke: #808080; stroke-width: 1.5;" x1="1028.5" x2="1143.5" y1="253.3438" y2="253.3438"/><!--link Humain to Joueur--><path d="M55.9563,115.124 C47.7719,128.561 40.4777,143.213 36,158 C-8.5373,305.075 22.7892,494.164 35.9475,559.27 " fill="none" id="Humain-Joueur" style="stroke: #000000; stroke-width: 1.0;"/><polygon fill="none" points="50.2208,111.106,67.0664,98.252,61.9134,118.806,50.2208,111.106" style="stroke: #000000; stroke-width: 1.0;"/><!--link Humain to MaitreDuJeu--><path d="M104,118.438 C104,142.132 104,167.482 104,185.23 " fill="none" id="Humain-MaitreDuJeu" style="stroke: #000000; stroke-width: 1.0;"/><polygon fill="none" points="97.0001,118.274,104,98.273,111,118.273,97.0001,118.274" style="stroke: #000000; stroke-width: 1.0;"/><!--link Humain to Personnage--><path d="M154.235,75.148 C224.366,104.672 350.865,157.926 420.915,187.415 " fill="none" id="Humain-Personnage" style="stroke: #000000; stroke-width: 1.0;"/><polygon fill="#FFFFFF" points="142.237,70.097,146.2148,76.1117,153.2968,74.7533,149.319,68.7385,142.237,70.097" style="stroke: #000000; stroke-width: 1.0;"/><text fill="#000000" font-family="sans-serif" font-size="13" lengthAdjust="spacingAndGlyphs" textLength="7" x="149.9323" y="69.3472">1</text><text fill="#000000" font-family="sans-serif" font-size="13" lengthAdjust="spacingAndGlyphs" textLength="5" x="407.8629" y="180.368">*</text><!--link MaitreDuJeu to Cast--><path d="M99.2888,246.691 C95.3118,277.241 89.6834,320.478 85.9415,349.222 " fill="none" id="MaitreDuJeu-Cast" style="stroke: #000000; stroke-width: 1.0;"/><polygon fill="#FFFFFF" points="100.9871,233.644,96.2459,239.0773,99.4376,245.5435,104.1789,240.1103,100.9871,233.644" style="stroke: #000000; stroke-width: 1.0;"/><text fill="#000000" font-family="sans-serif" font-size="13" lengthAdjust="spacingAndGlyphs" textLength="7" x="92.3996" y="255.0171">1</text><text fill="#000000" font-family="sans-serif" font-size="13" lengthAdjust="spacingAndGlyphs" textLength="5" x="81.2388" y="338.6692">*</text><!--link Cast to Joueur--><path d="M73.2264,424.512 C64.806,465.793 52.4086,526.57 45.7103,559.408 " fill="none" id="Cast-Joueur" style="stroke: #000000; stroke-width: 1.0;"/><polygon fill="#FFFFFF" points="75.8619,411.592,70.7433,416.6714,73.4632,423.3498,78.5818,418.2705,75.8619,411.592" style="stroke: #000000; stroke-width: 1.0;"/><text fill="#000000" font-family="sans-serif" font-size="13" lengthAdjust="spacingAndGlyphs" textLength="5" x="69.1613" y="432.8341">*</text><text fill="#000000" font-family="sans-serif" font-size="13" lengthAdjust="spacingAndGlyphs" textLength="5" x="41.2767" y="548.7246">*</text><!--link Connaissances to pckgConn--><path d="M1086,281.496 C1086,282.2054 1086,282.9161 1086,283.6279 C1086,283.9838 1086,284.34 1086,284.6964 " fill="none" id="Connaissances-pckgConn" style="stroke: #000000; stroke-width: 1.0;"/><polygon fill="none" points="1079,281.206,1086,261.206,1093,281.206,1079,281.206" style="stroke: #000000; stroke-width: 1.0;"/><!--link Competence to Stat--><path d="M609.831,442.88 C601.701,453.01 592.933,463.099 584,472 C548.197,507.676 500.547,541.662 469.578,562.295 " fill="none" id="Competence-Stat" style="stroke: #000000; stroke-width: 1.0;"/><polygon fill="#FFFFFF" points="618.052,432.356,611.2063,434.6222,610.6652,441.813,617.5109,439.5468,618.052,432.356" style="stroke: #000000; stroke-width: 1.0;"/><text fill="#000000" font-family="sans-serif" font-size="13" lengthAdjust="spacingAndGlyphs" textLength="5" x="608.0199" y="453.8948">*</text><text fill="#000000" font-family="sans-serif" font-size="13" lengthAdjust="spacingAndGlyphs" textLength="22" x="477.4283" y="554.4667">0..2</text><!--link Personnage to Stat--><path d="M465.909,267.887 C460.305,331.064 451.26,433.025 444.993,503.674 " fill="none" id="Personnage-Stat" style="stroke: #000000; stroke-width: 1.0;"/><polygon fill="#FFFFFF" points="467.085,254.634,462.5705,260.2571,466.0247,266.5871,470.5392,260.964,467.085,254.634" style="stroke: #000000; stroke-width: 1.0;"/><text fill="#000000" font-family="sans-serif" font-size="13" lengthAdjust="spacingAndGlyphs" textLength="5" x="461.1829" y="275.6604">*</text><text fill="#000000" font-family="sans-serif" font-size="13" lengthAdjust="spacingAndGlyphs" textLength="7" x="438.315" y="493.1033">6</text><!--link Personnage to Jauge--><path d="M407.874,215.094 C335.872,221.8 224.752,237.12 199,269 C140.749,341.112 163.957,455.963 186.04,524.814 " fill="none" id="Personnage-Jauge" style="stroke: #000000; stroke-width: 1.0;"/><polygon fill="#FFFFFF" points="420.833,213.94,414.5019,210.4879,408.8803,215.0042,415.2114,218.4563,420.833,213.94" style="stroke: #000000; stroke-width: 1.0;"/><text fill="#000000" font-family="sans-serif" font-size="13" lengthAdjust="spacingAndGlyphs" textLength="5" x="408.0975" y="229.3242">*</text><text fill="#000000" font-family="sans-serif" font-size="13" lengthAdjust="spacingAndGlyphs" textLength="7" x="175.9371" y="514.1922">4</text><!--link Personnage to Resistance--><path d="M441.21,266.33 C440.8,267.224 440.396,268.115 440,269 C402.304,353.222 366.685,453.759 345.105,517.856 " fill="none" id="Personnage-Resistance" style="stroke: #000000; stroke-width: 1.0;"/><polygon fill="#FFFFFF" points="446.843,254.591,440.6409,258.2698,441.6512,265.4097,447.8534,261.731,446.843,254.591" style="stroke: #000000; stroke-width: 1.0;"/><text fill="#000000" font-family="sans-serif" font-size="13" lengthAdjust="spacingAndGlyphs" textLength="5" x="438.0944" y="275.6114">*</text><text fill="#000000" font-family="sans-serif" font-size="13" lengthAdjust="spacingAndGlyphs" textLength="7" x="340.0305" y="507.3147">7</text><!--link Personnage to Race--><path d="M420.718,220.978 C389.033,229.61 348.815,244.515 320,269 C299.138,286.727 283.318,312.928 272.511,335.368 " fill="none" id="Personnage-Race" style="stroke: #000000; stroke-width: 1.0;"/><text fill="#000000" font-family="sans-serif" font-size="13" lengthAdjust="spacingAndGlyphs" textLength="5" x="407.9656" y="219.0459">*</text><text fill="#000000" font-family="sans-serif" font-size="13" lengthAdjust="spacingAndGlyphs" textLength="7" x="267.6564" y="324.7919">1</text><!--link Personnage to Langue--><path d="M534.234,210.678 C589.24,213.957 668.334,226.573 722,269 C745.198,287.34 759.368,318.017 767.502,342.401 " fill="none" id="Personnage-Langue" style="stroke: #000000; stroke-width: 1.0;"/><polygon fill="#FFFFFF" points="521.147,210.045,526.9466,214.3304,533.133,210.6252,527.3334,206.3398,521.147,210.045" style="stroke: #000000; stroke-width: 1.0;"/><text fill="#000000" font-family="sans-serif" font-size="13" lengthAdjust="spacingAndGlyphs" textLength="5" x="528.8795" y="206.5071">*</text><text fill="#000000" font-family="sans-serif" font-size="13" lengthAdjust="spacingAndGlyphs" textLength="20" x="744.0289" y="331.7453">1..*</text><!--link Personnage to Competence--><path d="M532.885,235.082 C550.663,244.029 569.22,255.364 584,269 C602.202,285.793 617.457,308.437 628.956,328.854 " fill="none" id="Personnage-Competence" style="stroke: #000000; stroke-width: 1.0;"/><polygon fill="#FFFFFF" points="521.06,229.41,524.7397,235.6116,531.8795,234.6002,528.1998,228.3986,521.06,229.41" style="stroke: #000000; stroke-width: 1.0;"/><text fill="#000000" font-family="sans-serif" font-size="13" lengthAdjust="spacingAndGlyphs" textLength="5" x="529.1082" y="228.7934">*</text><text fill="#000000" font-family="sans-serif" font-size="13" lengthAdjust="spacingAndGlyphs" textLength="5" x="620.2233" y="317.9619">*</text><!--link Personnage to Metier--><path d="M534.358,211.133 C648.706,213.413 883.848,223.651 950,269 C977.444,287.814 993.158,323.609 1001.361,349.367 " fill="none" id="Personnage-Metier" style="stroke: #000000; stroke-width: 1.0;"/><polygon fill="#FFFFFF" points="521.032,210.892,526.9589,214.9995,533.0301,211.1083,527.1031,207.0008,521.032,210.892" style="stroke: #000000; stroke-width: 1.0;"/><text fill="#000000" font-family="sans-serif" font-size="13" lengthAdjust="spacingAndGlyphs" textLength="5" x="529.076" y="225.8899">*</text><text fill="#000000" font-family="sans-serif" font-size="13" lengthAdjust="spacingAndGlyphs" textLength="5" x="994.2698" y="338.8441">*</text><!--link Personnage to Stances--><path d="M489.234,267.566 C495.576,287.414 502.642,309.528 508.807,328.823 " fill="none" id="Personnage-Stances" style="stroke: #000000; stroke-width: 1.0;"/><polygon fill="#FFFFFF" points="485.188,254.903,483.2042,261.8359,488.8408,266.3335,490.8246,259.4007,485.188,254.903" style="stroke: #000000; stroke-width: 1.0;"/><text fill="#000000" font-family="sans-serif" font-size="13" lengthAdjust="spacingAndGlyphs" textLength="5" x="481.7586" y="275.6308">*</text><text fill="#000000" font-family="sans-serif" font-size="13" lengthAdjust="spacingAndGlyphs" textLength="5" x="501.2951" y="318.2995">*</text><!--link Personnage to Magie--><path d="M534.257,214.052 C624.734,220.236 785.337,235.651 832,269 C856.594,286.577 871.874,317.643 880.705,342.369 " fill="none" id="Personnage-Magie" style="stroke: #000000; stroke-width: 1.0;"/><polygon fill="#FFFFFF" points="521.171,213.189,526.8947,217.5753,533.145,213.9789,527.4213,209.5926,521.171,213.189" style="stroke: #000000; stroke-width: 1.0;"/><text fill="#000000" font-family="sans-serif" font-size="13" lengthAdjust="spacingAndGlyphs" textLength="5" x="528.9826" y="209.6389">*</text><text fill="#000000" font-family="sans-serif" font-size="13" lengthAdjust="spacingAndGlyphs" textLength="5" x="873.4259" y="331.7076">*</text><!--
@startuml astarun
skinparam class {
	BackgroundColor white
	ArrowColor black
	BorderColor gray
}

abstract class Humain {
	+ nom
	+ prenom
	+ id
}

class MaitreDuJeu {
}

class Joueur {
}

class Cast {
	+ nom
}

class Personnage {
	+ nom
	+ taille
	- mod
}

class Race {
	+ nom
	+ rBonus
	+ uniqueSkill
}
together {
	class Stat {
		+ nom
		+ valeur
		+ rBonus
		+ dBonus
		+ sBonus
		- total
		- mod
		- points
	}

	class Resistance {
		+ elem
		+ valeur
		+ niveau
		+ bonus
		- total
		- points 
	}

	class Jauge {
		+ nom
		+ valeur
		+ bonus
		- total
		- points
	}
}

abstract class Connaissances {
	+ nom
	+ niveau
	+ description
	- points
}
package "" as pckgConn <<Rectangle>> {
	
	class Langue {
		+ nom
		+ points
	}

	class Competence {
		+ bPalier
		- mod
		- total
		- calcPoints()
	}

	class Stances {
		+ modAtk
		+ crit
		+ modCrit
		- calcPoints()
	}

	class Metier {
		- calcPoints()
	}

	class Magie {
		+ elem
		- calcPoints()
	}
}

Humain ^- - Joueur
Humain ^- - MaitreDuJeu
Humain "1" o- - "*" Personnage

MaitreDuJeu "1" o- - "*" Cast
Cast "*" o- - "*" Joueur
Connaissances ^- - pckgConn

Competence "*" o- - "0..2" Stat

Personnage "*" o- - "6" Stat 
Personnage "*" o- - "4" Jauge 
Personnage "*" o- - "7" Resistance
Personnage "*" - - "1" Race
Personnage "*" o- - "1..*" Langue
Personnage "*" o- - "*" Competence
Personnage "*" o- - "*" Metier
Personnage "*" o- - "*" Stances
Personnage "*" o- - "*" Magie

@enduml

PlantUML version 1.2019.06(Fri May 24 19:10:25 CEST 2019)
(GPL source distribution)
Java Runtime: Java(TM) SE Runtime Environment
JVM: Java HotSpot(TM) 64-Bit Server VM
Java Version: 1.8.0_211-b12
Operating System: Windows 10
OS Version: 10.0
Default Encoding: Cp1252
Language: fr
Country: FR
--></g></svg>